<svg width="702" height="702" viewBox="0 0 702 702" fill="none" xmlns="http://www.w3.org/2000/svg">
<path d="M472.372 550.332C474.733 554.508 492.298 575.902 484.639 580.97C484.524 581.345 484.322 581.719 484.006 582.093C438.653 636.43 363.613 645.616 297.038 644.867C262.052 644.493 226.835 639.482 194.211 626.496C168.727 616.389 137.167 600.148 122.251 576.046C121.963 575.586 121.935 575.067 122.079 574.607C121.935 574.088 121.934 573.512 122.165 572.908C134.95 540.6 146.641 508.119 158.62 475.551C158.677 475.378 158.792 475.263 158.879 475.148C164.35 457.727 184.449 448.743 201.093 443.675C227.613 435.641 255.976 436.015 283.418 436.39C309.391 436.735 335.365 438.002 361.05 442.091C382.157 445.431 408.735 449.117 425.839 463.227C430.792 467.316 434.276 472.326 436.263 477.797C449.106 501.553 459.098 526.749 472.372 550.332ZM478.016 578.811L477.93 578.235C477.728 577.112 478.045 575.701 478.909 574.895C471.969 569.769 454.663 531.356 452.302 526.461C447.032 515.519 441.878 504.289 437.876 492.742C437.444 496.053 436.551 499.365 435.14 502.647C426.761 521.767 407.237 532.623 388.175 538.526C364.937 545.725 339.857 546.387 315.726 546.762C292.373 547.136 268.848 546.243 245.84 541.895C221.307 537.288 165.703 520.731 159.167 489.69C152.198 519.147 141.227 548.461 128.068 575.384C128.039 575.471 127.981 575.528 127.953 575.586C138.578 583.821 148.023 593.381 159.397 600.839C172.873 609.708 187.444 616.849 202.619 622.378C232.796 633.378 265.018 637.639 297.038 637.985C330.469 638.359 365.427 636.056 397.85 627.503C429.611 619.124 455.383 602.106 478.016 578.811ZM427.797 503.079C456.823 449.002 332.255 444.596 304.698 443.473C280.654 442.494 256.091 441.659 232.105 444.107C208.608 446.526 167.402 454.214 162.709 482.404C167.345 508.176 200.891 523.121 223.178 530.32C244.804 537.288 267.609 539.966 290.242 540.686C331.621 542.039 404.703 546.128 427.797 503.079Z" fill="black"/>
<path d="M477.93 578.235L478.016 578.811C455.383 602.106 429.612 619.124 397.85 627.504C365.427 636.056 330.47 638.36 297.038 637.985C265.018 637.64 232.796 633.378 202.619 622.378C187.444 616.85 172.873 609.708 159.397 600.84C148.023 593.382 138.578 583.822 127.953 575.586C127.982 575.528 128.039 575.471 128.068 575.385C141.227 548.461 152.198 519.148 159.167 489.69C165.703 520.731 221.307 537.289 245.84 541.896C268.848 546.244 292.374 547.136 315.727 546.762C339.857 546.388 364.937 545.725 388.175 538.527C407.238 532.624 426.761 521.768 435.14 502.648C436.551 499.365 437.444 496.054 437.876 492.742C441.878 504.289 447.033 515.519 452.302 526.461C454.663 531.357 471.969 569.769 478.909 574.895C478.045 575.701 477.728 577.112 477.93 578.235ZM356.789 590.905C365.917 585.031 368.306 571.065 358.084 563.003C344.176 552.089 327.072 563.233 324.797 578.811C311.234 581.662 298.075 585.722 284.138 586.845C273.772 587.68 249.497 588.602 241.291 578.811C241.291 578.811 241.291 578.811 241.32 578.782C251.484 568.531 241.953 551.168 227.843 553.644C213.417 556.149 210.681 571.958 218.255 582.094C208.522 585.808 206.996 600.033 216.729 606.224C225.511 611.839 245.495 606.915 239.937 594.562C265.047 605.418 297.067 610.803 324.192 603.748C323.501 620.161 343.744 626.035 355.522 616.216C363.786 609.305 363.93 596.578 356.789 590.905Z" fill="#C679B3"/>
<path d="M304.698 443.476C332.255 444.599 456.823 449.005 427.797 503.082C404.704 546.131 331.621 542.042 290.243 540.689C267.61 539.969 244.804 537.291 223.179 530.322C200.891 523.123 167.345 508.179 162.709 482.407C167.402 454.217 208.608 446.528 232.105 444.109C256.091 441.662 280.654 442.497 304.698 443.476ZM406.863 509.734C420.167 496.373 419.821 470.659 398.052 466.915C395.835 466.512 394.856 469.852 397.102 470.313C420.052 475.122 412.939 502.362 397.908 512.181C388.953 518.027 377.867 520.071 367.471 521.885C345.645 525.715 323.415 527.184 301.271 526.55C279.992 525.917 258.798 523.239 238.037 518.516C215.692 513.448 175.091 506.25 180.994 475.007C181.138 474.2 179.986 473.596 179.611 474.402C155.74 525.312 295.253 530.553 320.017 529.948C346.105 529.315 386.995 529.631 406.863 509.734ZM378.961 462.769C381.725 463.114 381.696 458.795 378.961 458.449C342.65 453.612 306.051 450.848 269.395 450.905C241.608 450.934 212.409 452.777 188.135 467.606C186.695 468.47 187.962 470.543 189.431 469.824C218.197 455.916 248.835 454.562 280.251 455.167C313.308 455.829 346.221 458.392 378.961 462.769Z" fill="#C679B3"/>
<path d="M398.052 466.913C419.821 470.656 420.167 496.37 406.863 509.731C386.995 529.629 346.105 529.312 320.017 529.946C295.253 530.55 155.74 525.31 179.611 474.4C179.986 473.593 181.138 474.198 180.994 475.004C175.091 506.247 215.692 513.446 238.037 518.514C258.798 523.236 279.992 525.914 301.271 526.548C323.415 527.181 345.645 525.713 367.471 521.883C377.867 520.069 388.953 518.024 397.908 512.179C412.939 502.36 420.052 475.12 397.102 470.311C394.856 469.85 395.835 466.51 398.052 466.913Z" fill="black"/>
<path d="M378.961 458.449C381.696 458.794 381.725 463.114 378.961 462.768C346.221 458.391 313.308 455.828 280.251 455.166C248.835 454.561 218.197 455.915 189.43 469.823C187.962 470.543 186.695 468.469 188.135 467.606C212.409 452.776 241.608 450.933 269.395 450.904C306.051 450.847 342.65 453.611 378.961 458.449Z" fill="black"/>
<path d="M358.084 563.004C368.307 571.067 365.917 585.033 356.789 590.907C363.93 596.579 363.786 609.307 355.522 616.218C343.744 626.037 323.501 620.163 324.192 603.749C297.067 610.804 265.047 605.42 239.938 594.564C245.495 606.917 225.511 611.841 216.729 606.226C206.996 600.035 208.522 585.81 218.255 582.095C210.681 571.96 213.417 556.151 227.843 553.646C241.953 551.169 251.484 568.533 241.32 578.784C241.291 578.813 241.291 578.813 241.291 578.813C249.497 588.603 273.772 587.682 284.138 586.847C298.075 585.724 311.234 581.664 324.797 578.813C327.072 563.235 344.176 552.091 358.084 563.004ZM349.791 613.454C356.414 609.768 361.914 592.606 346.739 593.642C343.14 593.527 343.197 588.286 346.739 588.056C363.671 588.603 361.338 564.329 345.76 564.012C336.574 563.839 330.902 571.902 328.771 579.706C329.318 580.8 329.03 582.297 327.475 582.815C309.593 588.949 288.918 593.182 269.942 591.972C264.413 591.627 256.84 590.907 250.275 588.69C244.487 586.732 239.506 583.564 237.375 578.439C237.173 577.891 237.317 577.459 237.634 577.114C237.663 576.826 237.749 576.509 237.979 576.193C244.574 567.295 238.296 556.353 227.325 558.858C215.519 561.507 217.132 575.559 224.417 581.865C226.029 583.305 224.647 585.81 222.747 585.896C209.962 586.472 214.799 600.697 222.056 603.375C227.786 605.477 240.024 602.77 236.684 594.074C236.338 593.182 237.058 592.519 237.836 592.433C238.066 591.771 238.699 591.224 239.448 591.483C242.472 592.519 245.495 593.498 248.547 594.391C260.929 598.163 273.513 600.755 286.528 601.503C301.329 602.367 315.352 599.747 329.98 598.307C332.14 598.106 332.284 601.273 330.47 601.878C330.211 601.964 329.923 602.051 329.663 602.137C329.692 602.281 329.75 602.425 329.721 602.598C329.001 614.548 341.124 618.291 349.791 613.454Z" fill="#C679B3"/>
<path d="M346.739 593.639C361.914 592.602 356.414 609.764 349.791 613.45C341.124 618.288 329.001 614.544 329.721 602.594C329.75 602.422 329.692 602.278 329.663 602.134C329.922 602.047 330.21 601.961 330.47 601.874C332.284 601.27 332.14 598.102 329.98 598.304C315.352 599.744 301.329 602.364 286.528 601.5C273.513 600.751 260.929 598.16 248.547 594.388L250.275 588.686C256.84 590.904 264.413 591.623 269.942 591.969C288.918 593.178 309.593 588.945 327.475 582.812C329.03 582.294 329.318 580.796 328.771 579.702C330.901 571.899 336.574 563.836 345.76 564.009C361.338 564.326 363.67 588.6 346.739 588.053C343.197 588.283 343.139 593.524 346.739 593.639Z" fill="#C679B3"/>
<path d="M250.275 588.686L248.547 594.387C245.495 593.495 242.471 592.516 239.448 591.479C238.699 591.22 238.066 591.767 237.835 592.429C237.058 592.516 236.338 593.178 236.683 594.071C240.024 602.767 227.786 605.474 222.055 603.372C214.799 600.694 209.961 586.469 222.746 585.893C224.647 585.806 226.029 583.301 224.417 581.861C217.131 575.555 215.519 561.503 227.325 558.854C238.296 556.349 244.573 567.291 237.979 576.189C237.749 576.506 237.663 576.822 237.634 577.11C237.317 577.456 237.173 577.888 237.375 578.435C239.505 583.56 244.487 586.728 250.275 588.686Z" fill="#C679B3"/>
<rect x="206.683" y="113.007" width="42.4004" height="68.7575" fill="black"/>
<path d="M328.491 293.84C333.271 327.818 339.957 366.081 332.899 400.158C331.141 408.627 326.411 411.203 317.966 409.048C298.649 404.07 282.18 403.03 266.107 417.27C265.017 418.236 263.68 418.286 262.64 417.692L261.055 415.091C256.226 352.658 251.867 288.194 257.514 225.711C260.114 197.255 267.593 170.856 277.673 144.208C284.186 127.021 290.65 109.71 293.696 91.8295C263.185 96.4358 231.238 96.4359 200.479 96.213C169.473 95.9654 138.145 94.5537 107.436 89.9721C105.529 132.098 88.2427 172.218 76.603 212.759C58.673 275.093 66.375 336.956 77.7175 399.761C77.7918 400.232 77.7422 400.653 77.5689 401C76.8507 402.485 74.3742 402.808 73.9284 400.802C61.942 343.891 53.3237 285.37 66.9446 227.915C79.8968 173.159 108.971 119.814 100.452 62.0368C100.204 60.1794 101.195 58.3468 103.275 58.3468C168.136 58.1734 233.021 58.0991 297.881 58C298.55 58 299.07 58.2478 299.54 58.5697C301.101 58.4459 302.834 59.387 302.983 61.393C308.555 139.255 317.594 216.597 328.491 293.84ZM328.491 385.472C331.116 348.918 325.197 312.464 320.046 276.381C311.353 215.532 304.543 154.436 299.516 93.1916C296.767 109.041 291.417 124.445 285.672 139.726C275.047 168.008 266.206 195.398 263.457 225.711C257.959 286.287 261.897 348.77 266.528 409.42C274.527 403.55 283.666 399.86 293.77 398.994C298.896 398.573 304.171 398.895 309.224 400.009C311.849 400.579 316.926 403.352 319.551 403.328C328.491 403.228 328.095 390.871 328.491 385.472ZM294.488 86.4801C295.429 79.0753 295.751 71.5714 295.157 63.9189C291.937 63.9189 288.693 63.9189 285.474 63.9189C285.895 71.3981 284.805 79.4468 283.963 86.9507C287.48 86.7773 290.971 86.6039 294.488 86.4801ZM281.363 63.9437C277.92 63.9437 274.453 63.9437 271.011 63.9437C271.432 71.5962 269.971 79.9173 268.707 87.768C272.67 87.5203 276.632 87.2974 280.595 87.0992C280.521 79.5458 280.273 71.3981 281.363 63.9437ZM267.667 63.9437C261.352 63.9685 255.012 63.9685 248.672 63.9685C249.415 72.042 247.31 81.2795 245.304 89.1796C251.991 88.7834 258.678 88.3624 265.364 87.9661C265.661 79.9917 265.835 71.4972 267.667 63.9437ZM245.23 63.9933C238.494 63.9933 231.782 63.9933 225.046 64.0181C224.601 68.8969 223.238 73.7012 222.644 78.58C222.173 82.5177 221.975 86.4306 221.876 90.3435C228.637 90.0958 235.398 89.7492 242.134 89.3778C243.001 84.5485 243.769 79.7193 244.264 74.8405C244.611 71.2248 244.611 67.5595 245.23 63.9933ZM221.728 64.0181C215.71 64.0181 209.717 64.018 203.699 64.0427C203.401 68.3271 202.658 72.6115 202.064 76.8959C201.445 81.4032 201.247 86.3564 199.885 90.7646C200.083 90.7646 200.281 90.7646 200.479 90.7646C206.596 90.7894 212.688 90.6408 218.781 90.4427C218.36 81.8243 218.805 71.943 221.728 64.0181ZM199.959 64.0427C194.189 64.0427 188.418 64.0675 182.648 64.0675C182.549 72.8592 181.93 81.651 181.979 90.4674C186.982 90.616 192.009 90.6903 197.037 90.7398C196.814 86.3564 197.73 81.8986 198.25 77.5399C198.795 73.0573 199.167 68.5005 199.959 64.0427ZM178.933 64.0675C174.005 64.0675 169.101 64.0923 164.198 64.0923C164.025 68.5501 163.207 72.9831 162.935 77.4409C162.786 79.8926 162.737 82.3195 162.712 84.7713V86.8516C163.034 87.6937 162.984 88.4119 162.662 89.0558C163.207 88.8329 163.826 88.9814 163.925 89.7244C163.95 89.7491 163.926 89.774 163.95 89.7987C168.879 90.0216 173.832 90.1949 178.785 90.3435C178.364 81.6756 178.042 72.7354 178.933 64.0675ZM160.557 64.0923C154.812 64.0923 149.066 64.1171 143.321 64.1171C143.593 72.2154 142.627 80.5117 142.281 88.6595C147.902 89.0062 153.499 89.3034 159.121 89.5758C158.304 86.8021 158.873 83.0874 158.923 80.5861C159.022 75.1625 159.195 69.3921 160.557 64.0923ZM140.101 64.1171C134.925 64.1171 129.725 64.1419 124.549 64.1419C123.459 72.1163 122.493 79.4221 123.335 87.4956C128.883 87.8423 134.455 88.189 140.002 88.5357C139.012 80.5365 138.492 71.9429 140.101 64.1171ZM120.859 64.1419C116.104 64.1419 111.324 64.1667 106.569 64.1667C107.461 71.6953 107.758 79.1249 107.56 86.5297C111.894 86.7773 116.203 87.0498 120.512 87.3222C119.001 79.8183 118.704 71.522 120.859 64.1419Z" fill="black"/>
<path d="M320.046 276.38C325.197 312.463 331.116 348.918 328.491 385.472C328.095 390.87 328.491 403.228 319.551 403.327C316.925 403.352 311.849 400.578 309.223 400.009C304.171 398.894 298.896 398.572 293.77 398.993C283.666 399.86 274.527 403.55 266.528 409.42C261.897 348.769 257.959 286.287 263.457 225.711C266.206 195.398 275.047 168.007 285.672 139.725C291.417 124.445 296.766 109.041 299.515 93.1915C304.543 154.436 311.353 215.532 320.046 276.38Z" fill="#FFF266"/>
<path d="M295.157 63.9181C295.751 71.5706 295.429 79.0744 294.488 86.4793C290.971 86.6031 287.48 86.7764 283.963 86.9498C284.805 79.4459 285.895 71.3972 285.474 63.9181C288.693 63.9181 291.937 63.9181 295.157 63.9181Z" fill="#FFF266"/>
<path d="M293.696 91.8302C290.649 109.711 284.186 127.022 277.672 144.209C267.593 170.856 260.114 197.256 257.513 225.712C251.867 288.194 256.226 352.658 261.055 415.092C260.956 415.067 260.882 414.993 260.782 414.993C200.826 406.796 139.755 408.455 79.7978 399.886C78.8815 399.762 78.0395 400.332 77.668 401.05L77.5689 401C77.7423 400.654 77.7918 400.233 77.7175 399.762C66.375 336.957 58.673 275.094 76.6031 212.759C88.2428 172.218 105.529 132.099 107.436 89.9728C138.145 94.5544 169.473 95.966 200.479 96.2137C231.238 96.4366 263.185 96.4365 293.696 91.8302ZM243.595 230.788C249.935 223.928 250.356 212.933 245.255 205.28C242.679 201.367 238.741 198.767 234.507 196.909C231.188 195.473 224.848 192.031 221.232 194.21C217.79 196.29 218.954 201.689 219.003 205.008C219.152 213.552 219.301 222.071 219.548 230.59C217.939 231.432 217.418 233.834 219.35 235.098C226.755 239.927 237.85 237.004 243.595 230.788ZM242.778 129.077C245.775 129.102 246.394 124.619 243.472 123.852C235.274 121.623 225.442 122.737 217.245 124.595C214.05 125.313 215.462 129.87 218.558 129.399C221.158 129.028 223.659 128.854 226.161 128.78C225.071 135.318 225.021 142.029 223.808 148.567C222.446 155.923 220.316 163.03 218.087 170.163C217.493 172.119 220.588 173.506 221.43 171.575C226.978 159.093 232.377 142.772 231.337 128.755C235.101 128.83 238.865 129.028 242.778 129.077ZM238.172 311.895C240.079 311.573 239.608 308.527 237.726 308.576C231.51 308.725 225.244 309.319 219.003 310.037C222.025 296.639 222.099 282.102 217.939 270.958C217.295 269.249 215.536 268.407 213.852 269.298C208.577 272.146 205.308 275.837 203.624 281.161C181.484 272.642 157.932 271.354 135.049 277.545C134.455 272.716 132.944 268.655 129.848 264.37C128.338 262.29 125.366 263.281 124.846 265.088C115.633 276.58 114.568 291.513 116.946 305.778C110.259 304.143 103.672 302.261 97.1087 299.487C95.7962 298.918 94.6322 300.85 95.9695 301.419C102.854 304.465 110.135 307.313 117.59 309.22C118.258 312.365 119.076 315.461 119.967 318.458C114.42 318.507 108.798 318.978 103.771 319.696C102.805 319.845 103.201 321.182 103.993 321.281C109.318 321.974 115.336 322.321 121.156 322.222C122.072 324.773 123.162 327.225 124.425 329.602C119.918 331.98 115.41 334.53 111.695 337.75C110.829 338.493 111.745 340.127 112.859 339.731C117.441 338.022 121.849 335.323 126.084 332.574C133.737 345.155 146.169 354.244 161.399 356.373C177.051 358.577 193.074 352.51 203.847 341.192C208.85 342.629 213.927 343.892 218.83 344.932C220.762 345.328 221.505 342.604 219.647 341.96C215.462 340.548 211.054 339.211 206.621 337.997C207.537 336.858 208.429 335.67 209.221 334.431C210.41 332.623 211.5 330.667 212.54 328.611C217.22 329.453 221.926 330.147 226.582 330.469C228.414 330.617 228.736 327.794 227.003 327.324C222.892 326.234 218.632 325.441 214.323 324.773C215.734 321.454 216.948 317.938 217.963 314.272C224.749 313.752 231.535 313.059 238.172 311.895ZM202.386 223.805C205.581 214.468 203.327 202.754 196.814 195.3C196.913 194.755 196.665 194.136 195.947 193.938C177.224 188.885 167.194 224.3 184.481 232.398C192.331 236.088 199.761 231.606 202.386 223.805ZM193.396 172.218C194.139 175.017 198.845 174.571 198.597 171.525C197.16 154.536 190.598 137.572 183.267 122.316C182.078 119.815 178.735 120.905 177.918 123.01C174.327 132.346 171.281 141.881 168.879 151.589C167.962 152.035 167.665 153.446 168.259 154.239C167.17 158.994 166.204 163.798 165.436 168.627C164.99 171.5 169.25 172.838 169.919 169.866C171.008 164.987 172.247 160.182 173.534 155.403C175.862 155.725 178.19 156.022 180.518 156.369C183.391 156.814 186.462 157.706 189.335 157.087C190.697 162.065 192.009 167.092 193.396 172.218ZM162.786 215.31C163.653 206.766 158.7 195.25 150.28 191.659C150.106 190.867 149.537 190.198 148.546 190.272C130.79 191.907 126.852 226.306 144.46 230.987C153.97 233.513 161.895 223.928 162.786 215.31ZM152.286 170.064C154.143 168.974 153.549 165.358 151.097 165.656C138.64 167.265 125.539 165.606 121.973 151.019C118.308 136.061 130.74 124.595 144.955 124.545C147.704 124.545 147.506 120.756 144.955 120.409C127.496 118.18 112.736 133.411 115.955 150.92C118.778 166.324 137.575 178.831 152.286 170.064ZM115.509 193.368C119.15 194.16 120.71 188.564 117.07 187.771C112.562 186.805 108.08 185.839 103.572 184.898C101.789 184.527 99.9568 185.716 99.9815 187.672C100.031 195.126 100.081 202.63 100.204 210.109C99.511 210.852 99.3624 212.115 100.254 212.784C100.353 218.876 100.502 224.968 100.799 231.061C100.898 233.364 104.192 233.339 104.34 231.061C104.736 225.513 104.984 219.991 105.182 214.419C105.578 214.493 105.95 214.617 106.371 214.666C108.327 214.914 110.631 215.236 112.315 213.998C113.553 213.081 113.479 211.174 111.894 210.679C110.284 210.184 108.674 210.679 107.04 210.629C106.445 210.605 105.9 210.506 105.331 210.407C105.504 204.017 105.578 197.603 105.653 191.189C108.922 191.932 112.216 192.65 115.509 193.368Z" fill="white"/>
<path d="M271.011 63.9435C274.453 63.9435 277.92 63.9435 281.363 63.9435C280.273 71.3978 280.521 79.5456 280.595 87.099C276.632 87.2971 272.67 87.52 268.708 87.7677C269.971 79.9171 271.432 71.596 271.011 63.9435Z" fill="#FFF266"/>
<path d="M248.672 63.9683C255.012 63.9683 261.352 63.9682 267.667 63.9435C265.835 71.4969 265.661 79.9914 265.364 87.9659C258.678 88.3621 251.991 88.7831 245.304 89.1793C247.31 81.2792 249.415 72.0418 248.672 63.9683Z" fill="#FFF266"/>
<path d="M261.055 415.09L262.64 417.691C262.467 418.954 261.526 420.167 260.089 420.167C228.093 420.118 195.65 416.031 163.727 413.827C147.729 412.713 131.731 411.747 115.757 410.484C103.102 409.469 90.0259 408.626 78.4109 403.178C77.3708 402.708 77.2717 401.791 77.668 401.048C78.0395 400.33 78.8815 399.761 79.7978 399.884C139.755 408.453 200.826 406.794 260.783 414.991C260.882 414.991 260.956 415.065 261.055 415.09Z" fill="black"/>
<path d="M245.255 205.279C250.356 212.932 249.935 223.927 243.595 230.787C237.85 237.003 226.755 239.926 219.35 235.096C217.418 233.833 217.939 231.431 219.548 230.589C219.301 222.07 219.152 213.551 219.003 205.007C218.954 201.688 217.79 196.289 221.232 194.209C224.848 192.03 231.188 195.472 234.507 196.908C238.741 198.766 242.679 201.366 245.255 205.279ZM241.193 224.15C244.982 217.315 242.506 208.499 236.166 204.214C234.011 202.728 228.538 199.509 225.641 199.707C225.195 199.732 224.922 199.707 224.749 199.657C224.699 199.88 224.576 200.177 224.303 200.673C223.659 201.738 224.229 205.18 224.204 206.443C224.056 214.566 223.957 222.664 223.709 230.787C230.47 231.778 237.379 231.06 241.193 224.15Z" fill="black"/>
<path d="M225.046 64.02C231.782 63.9953 238.494 63.9952 245.23 63.9952C244.611 67.5614 244.611 71.2267 244.264 74.8425C243.769 79.7212 243.001 84.5505 242.134 89.3797C235.398 89.7512 228.637 90.0978 221.876 90.3454C221.975 86.4325 222.173 82.5196 222.644 78.5819C223.238 73.7031 224.6 68.8988 225.046 64.02Z" fill="#FFF266"/>
<path d="M236.166 204.214C242.506 208.498 244.982 217.314 241.193 224.15C237.379 231.059 230.47 231.777 223.709 230.787C223.956 222.664 224.056 214.565 224.204 206.442C224.229 205.179 223.659 201.737 224.303 200.672C224.576 200.177 224.699 199.88 224.749 199.657C224.922 199.706 225.195 199.731 225.641 199.706C228.538 199.508 234.011 202.728 236.166 204.214Z" fill="white"/>
<path d="M237.726 308.574C239.608 308.525 240.079 311.571 238.172 311.893C231.535 313.057 224.749 313.75 217.963 314.27C216.948 317.935 215.734 321.452 214.323 324.771C218.632 325.439 222.892 326.232 227.003 327.321C228.736 327.792 228.414 330.615 226.582 330.467C221.926 330.145 217.22 329.451 212.54 328.609C211.5 330.665 210.41 332.621 209.221 334.429C208.429 335.667 207.537 336.856 206.621 337.995C211.054 339.209 215.462 340.546 219.647 341.958C221.505 342.602 220.762 345.326 218.83 344.93C213.927 343.89 208.85 342.626 203.847 341.19C193.074 352.508 177.051 358.575 161.399 356.371C146.169 354.241 133.736 345.153 126.084 332.572C121.849 335.321 117.441 338.02 112.859 339.729C111.745 340.125 110.829 338.491 111.695 337.748C115.41 334.528 119.917 331.977 124.425 329.6C123.162 327.222 122.072 324.771 121.156 322.22C115.336 322.319 109.318 321.972 103.993 321.279C103.201 321.18 102.805 319.842 103.77 319.694C108.798 318.976 114.42 318.505 119.967 318.456C119.075 315.459 118.258 312.363 117.59 309.218C110.135 307.311 102.854 304.463 95.9694 301.417C94.6321 300.847 95.7961 298.916 97.1086 299.485C103.671 302.259 110.259 304.141 116.946 305.776C114.568 291.511 115.633 276.577 124.846 265.086C125.366 263.278 128.338 262.288 129.848 264.368C132.944 268.652 134.455 272.714 135.049 277.543C157.932 271.352 181.484 272.64 203.624 281.159C205.308 275.834 208.577 272.144 213.852 269.296C215.536 268.405 217.295 269.247 217.938 270.956C222.099 282.1 222.025 296.637 219.003 310.035C225.244 309.317 231.51 308.723 237.726 308.574ZM212.837 310.803C215.685 299.361 216.576 286.508 213.654 275.834C210.41 278.162 208.577 281.431 208.23 285.641C207.958 287.004 206.101 288.143 204.788 287.598C181.583 278.212 157.288 276.998 133.241 283.982C131.508 284.502 129.551 283.091 129.625 281.233C129.824 276.107 128.635 272.268 126.034 268.231C119.026 279.673 119.1 293.764 121.874 306.94C125.069 307.658 128.288 308.376 131.557 309.119C132.87 309.416 132.573 311.546 131.235 311.472C128.362 311.274 125.514 310.877 122.642 310.332C123.335 313.131 124.152 315.88 124.994 318.53C127.149 318.604 129.254 318.753 131.235 319C132.523 319.149 133.117 321.279 131.582 321.477C129.873 321.7 128.065 321.873 126.233 321.997C126.976 323.805 127.818 325.588 128.734 327.297C129.328 326.975 129.898 326.678 130.467 326.356C132.077 325.464 133.439 327.817 131.904 328.807C131.359 329.154 130.789 329.501 130.22 329.872C137.773 342.082 150.354 350.774 165.337 351.492C177.744 352.087 189.211 347.406 197.755 339.308C195.179 338.441 192.678 337.55 190.251 336.584C188.963 336.088 189.458 334.33 190.82 334.528C193.99 335.048 197.235 335.717 200.479 336.485C202.881 333.76 204.986 330.764 206.745 327.495C202.881 326.727 199.043 325.935 195.254 325.192C193.297 324.82 194.164 321.997 196.071 322.269C200.132 322.839 204.318 323.359 208.478 323.904C208.552 323.731 208.652 323.582 208.726 323.409C209.84 320.709 210.88 317.787 211.772 314.741C207.611 315.038 203.451 315.31 199.34 315.632C197.334 315.781 197.433 312.784 199.34 312.537C203.822 311.992 208.33 311.373 212.837 310.803Z" fill="black"/>
<path d="M203.699 64.0442C209.717 64.0194 215.71 64.0195 221.728 64.0195C218.806 71.9444 218.36 81.8258 218.781 90.4441C212.688 90.6422 206.596 90.7908 200.479 90.766C200.281 90.766 200.083 90.766 199.885 90.766C201.247 86.3578 201.445 81.4047 202.064 76.8974C202.659 72.613 203.401 68.3286 203.699 64.0442Z" fill="#FFF266"/>
<path d="M213.654 275.835C216.576 286.509 215.685 299.362 212.837 310.803C208.33 311.373 203.822 311.992 199.34 312.537C197.433 312.785 197.334 315.781 199.34 315.633C203.451 315.311 207.611 315.038 211.772 314.741C210.88 317.787 209.84 320.71 208.726 323.409C208.652 323.582 208.552 323.731 208.478 323.904C204.318 323.36 200.132 322.839 196.071 322.27C194.164 321.997 193.297 324.821 195.254 325.192C199.043 325.935 202.881 326.728 206.745 327.495C204.986 330.764 202.881 333.761 200.479 336.485C197.235 335.717 193.99 335.049 190.821 334.529C189.458 334.331 188.963 336.089 190.251 336.584C192.678 337.55 195.179 338.442 197.755 339.308C189.211 347.407 177.744 352.087 165.337 351.493C150.354 350.775 137.773 342.082 130.22 329.873C130.79 329.501 131.359 329.155 131.904 328.808C133.439 327.817 132.077 325.465 130.468 326.356C129.898 326.678 129.328 326.975 128.734 327.297C127.818 325.588 126.976 323.805 126.233 321.997C128.065 321.874 129.873 321.7 131.582 321.477C133.117 321.279 132.523 319.149 131.235 319.001C129.254 318.753 127.149 318.605 124.994 318.53C124.152 315.88 123.335 313.131 122.642 310.333C125.515 310.878 128.363 311.274 131.235 311.472C132.573 311.546 132.87 309.417 131.557 309.119C128.288 308.376 125.069 307.658 121.874 306.94C119.1 293.765 119.026 279.673 126.035 268.232C128.635 272.269 129.824 276.107 129.626 281.234C129.551 283.091 131.508 284.503 133.241 283.983C157.288 276.999 181.583 278.212 204.788 287.598C206.101 288.143 207.958 287.004 208.231 285.642C208.577 281.432 210.41 278.163 213.654 275.835Z" fill="#F2F2F2"/>
<path d="M196.814 195.3C203.327 202.755 205.581 214.469 202.386 223.805C199.761 231.606 192.331 236.089 184.481 232.399C167.194 224.301 177.224 188.886 195.947 193.938C196.665 194.136 196.913 194.755 196.814 195.3ZM188.22 227.718C196.343 229.65 198.324 220.09 198.126 213.949C197.953 207.782 195.254 202.903 192.133 197.752C192.034 197.604 192.009 197.455 191.96 197.282C181.212 202.16 174.624 224.474 188.22 227.718Z" fill="black"/>
<path d="M182.648 64.0654C188.418 64.0654 194.189 64.0406 199.959 64.0406C199.167 68.4984 198.795 73.0553 198.25 77.5378C197.73 81.8965 196.814 86.3543 197.037 90.7377C192.009 90.6882 186.982 90.6139 181.979 90.4654C181.93 81.6489 182.549 72.8571 182.648 64.0654Z" fill="#FFF266"/>
<path d="M198.597 171.523C198.845 174.569 194.139 175.015 193.396 172.216C192.009 167.09 190.697 162.063 189.335 157.085C186.462 157.704 183.391 156.812 180.518 156.367C178.19 156.02 175.863 155.723 173.535 155.401C172.247 160.18 171.008 164.985 169.919 169.864C169.25 172.836 164.991 171.498 165.436 168.625C166.204 163.796 167.17 158.992 168.26 154.237C167.665 153.444 167.962 152.033 168.879 151.587C171.281 141.879 174.327 132.344 177.918 123.008C178.735 120.903 182.079 119.813 183.267 122.314C190.598 137.57 197.161 154.534 198.597 171.523ZM188.171 152.899C186.115 145.717 183.862 138.635 180.989 131.601C178.562 138.263 176.432 144.999 174.5 151.785C176.68 151.958 178.884 152.132 181.063 152.28C183.441 152.454 185.892 152.305 188.171 152.899Z" fill="black"/>
<path d="M198.126 213.947C198.325 220.088 196.343 229.648 188.22 227.716C174.624 224.472 181.212 202.158 191.96 197.28C192.009 197.453 192.034 197.601 192.133 197.75C195.254 202.901 197.953 207.78 198.126 213.947Z" fill="white"/>
<path d="M180.989 131.604C183.862 138.638 186.115 145.721 188.171 152.903C185.892 152.308 183.441 152.457 181.063 152.283C178.884 152.135 176.68 151.962 174.5 151.788C176.432 145.003 178.562 138.266 180.989 131.604Z" fill="white"/>
<path d="M164.198 64.0924C169.101 64.0924 174.005 64.0676 178.933 64.0676C178.042 72.7355 178.364 81.6757 178.785 90.3436C173.832 90.195 168.879 90.0217 163.95 89.7988C163.925 89.7741 163.95 89.7492 163.925 89.7245C163.826 88.9815 163.207 88.833 162.662 89.0559C162.984 88.412 163.034 87.6938 162.712 86.8517V84.7714C162.737 82.3196 162.786 79.8927 162.935 77.441C163.207 72.9832 164.025 68.5502 164.198 64.0924Z" fill="#FFF266"/>
<path d="M150.28 191.659C158.7 195.25 163.653 206.766 162.786 215.31C161.895 223.928 153.97 233.512 144.46 230.986C126.852 226.306 130.79 191.907 148.546 190.272C149.537 190.198 150.107 190.866 150.28 191.659ZM144.386 224.845C154.341 230.12 158.576 215.013 156.669 208.177C154.936 201.961 150.651 199.014 146.119 195.25C137.551 200.822 134.925 219.817 144.386 224.845Z" fill="black"/>
<path d="M143.321 64.119C149.066 64.119 154.812 64.0942 160.557 64.0942C159.195 69.394 159.022 75.1644 158.923 80.588C158.873 83.0893 158.304 86.804 159.121 89.5777C153.499 89.3053 147.902 89.0081 142.281 88.6614C142.627 80.5136 143.593 72.2173 143.321 64.119Z" fill="#FFF266"/>
<path d="M156.669 208.176C158.576 215.011 154.341 230.118 144.386 224.843C134.925 219.816 137.55 200.821 146.119 195.249C150.651 199.013 154.936 201.96 156.669 208.176Z" fill="white"/>
<path d="M151.097 165.654C153.549 165.357 154.143 168.973 152.286 170.063C137.575 178.829 118.778 166.323 115.955 150.919C112.736 133.41 127.496 118.179 144.955 120.408C147.506 120.755 147.704 124.544 144.955 124.544C130.74 124.594 118.308 136.06 121.973 151.018C125.539 165.605 138.64 167.264 151.097 165.654Z" fill="black"/>
<path d="M124.549 64.1432C129.725 64.1432 134.925 64.1184 140.101 64.1184C138.491 71.9443 139.012 80.5378 140.002 88.537C134.455 88.1903 128.883 87.8436 123.335 87.4969C122.493 79.4234 123.459 72.1176 124.549 64.1432Z" fill="#FFF266"/>
<path d="M106.569 64.167C111.324 64.167 116.104 64.1422 120.859 64.1422C118.704 71.5223 119.001 79.8186 120.512 87.3225C116.203 87.0501 111.894 86.7776 107.56 86.53C107.758 79.1252 107.461 71.6957 106.569 64.167Z" fill="#FFF266"/>
<path d="M117.07 187.771C120.71 188.563 119.15 194.16 115.509 193.368C112.216 192.649 108.922 191.931 105.653 191.188C105.579 197.602 105.504 204.017 105.331 210.406C105.901 210.505 106.445 210.604 107.04 210.629C108.674 210.679 110.284 210.183 111.894 210.679C113.479 211.174 113.553 213.081 112.315 213.997C110.631 215.235 108.328 214.913 106.371 214.666C105.95 214.616 105.579 214.492 105.182 214.418C104.984 219.99 104.737 225.513 104.34 231.06C104.192 233.339 100.898 233.364 100.799 231.06C100.502 224.968 100.353 218.876 100.254 212.784C99.3625 212.115 99.5111 210.852 100.204 210.109C100.081 202.63 100.031 195.126 99.9816 187.672C99.9569 185.715 101.789 184.526 103.573 184.898C108.08 185.839 112.562 186.805 117.07 187.771Z" fill="black"/>
<rect x="522.966" y="139.362" width="43.5464" height="58.4438" fill="black"/>
<path d="M640.112 338.643C640.55 362.789 643.958 390.391 633.661 412.979C633.126 414.196 631.398 414.44 630.351 413.856C618.741 407.332 606.424 412.687 596.396 419.551C593.28 421.693 589.142 426.124 584.955 426.294C584.444 426.294 583.958 426.27 583.495 426.221C583.203 426.513 582.838 426.756 582.278 426.854C548.274 431.698 513.953 433.328 479.657 431.089C463.349 430.018 447.016 428.217 430.903 425.418C420.241 423.568 406.27 421.45 399.479 412.128C399.43 412.03 399.43 411.957 399.406 411.884C398.602 412.371 397.264 412.176 397.093 411.081C388.744 358.967 390.692 305.466 397.897 253.352C401.718 225.701 407.073 198.269 413.548 171.129C420.168 143.283 431.584 114.61 429.54 85.644C429.418 83.8185 431.268 83.2343 432.582 83.8428C432.266 82.9179 432.801 81.6521 434.091 81.5304C442.976 80.7272 451.884 80.07 460.842 79.4858C460.842 79.4371 460.842 79.3884 460.866 79.3641C460.964 78.7556 461.84 78.8773 461.962 79.4128C510.083 76.2728 559.057 76.1268 606.935 77.6846C608.128 77.7333 608.785 78.5365 608.98 79.4371C609.029 79.4615 609.102 79.4858 609.15 79.5345C610.367 79.0233 611.925 79.3398 612.266 81.0193C623.438 137.125 631.325 193.888 635.852 250.894C638.165 280.103 639.576 309.361 640.112 338.643ZM635.438 374.253C636.363 278.813 626.895 183.372 608.98 89.6603C606.911 112.37 601.045 134.374 596.42 156.695C590.651 184.492 586.221 212.581 583.154 240.817C578.164 286.943 576.777 333.458 579.016 379.779C579.357 386.74 579.771 393.677 580.282 400.639C580.477 403.341 579.844 416.728 581.864 418.748C586.343 423.203 603.284 409.669 608.371 407.917C612.582 406.48 617.085 405.531 621.588 405.848C623.219 405.969 628.453 408.038 629.329 407.746C636.874 405.215 635.39 381.336 635.438 374.253ZM606.375 82.1146C603.43 82.139 600.485 82.1876 597.54 82.212C596.201 90.7799 593.28 99.4453 590.749 107.843C594.521 108.062 598.294 108.281 602.067 108.524C602.189 108.549 602.262 108.597 602.359 108.622C603.99 99.8104 605.377 90.999 606.375 82.1146ZM601.751 111.956C597.588 112.029 593.426 112.054 589.264 112.078C588.899 112.346 588.388 112.322 588.022 112.078C584.298 112.078 580.574 112.078 576.85 112.078C576.436 112.37 575.828 112.395 575.463 112.054C527.974 111.859 480.266 109.547 432.874 108.378C432.826 108.378 432.801 108.354 432.777 108.354C430.172 126.877 423.99 145.036 419.511 163.121C412.988 189.458 407.438 216.062 403.3 242.886C394.708 298.699 393.393 354.61 400.014 410.691C400.039 410.813 399.99 410.91 399.99 411.032C400.087 410.983 400.209 410.959 400.331 411.008C406.611 412.76 412.185 416.119 418.465 417.945C425.085 419.868 431.949 420.89 438.716 421.937C454.586 424.322 470.603 425.904 486.619 426.683C517.264 428.217 547.933 426.708 578.31 422.521C576.047 418.31 576.339 411.568 576.022 407.576C573.15 371.332 572.493 334.943 574.051 298.626C575.56 263.648 579.138 228.768 584.712 194.204C589.166 166.65 596.493 139.437 601.751 111.956ZM594.327 82.2363C589.337 82.285 584.347 82.3093 579.357 82.358C579.99 90.3662 578.676 99.0558 577.726 107.186C581.231 107.356 584.736 107.526 588.242 107.697C590.018 99.2262 591.552 90.3662 594.327 82.2363ZM575.244 107.088C575.341 98.9585 575.171 90.2201 576.777 82.4067C573.004 82.4554 569.207 82.4797 565.41 82.5527C564.777 86.715 563.414 90.6826 563 94.9422C562.611 98.7394 562.684 102.537 563 106.334C563 106.431 562.976 106.504 562.976 106.577C567.065 106.723 571.154 106.918 575.244 107.088ZM563.024 82.5771C557.329 82.6501 551.633 82.7475 545.937 82.8205C546.814 90.4148 546.083 98.4473 545.645 106.09C550.781 106.212 555.917 106.358 561.029 106.504C559.933 98.9585 559.763 89.7333 563.024 82.5771ZM526.489 105.774C532.331 105.847 538.172 105.944 544.039 106.066C543.6 98.4473 542.87 90.4148 543.722 82.8692C538.465 82.9422 533.207 83.0152 527.925 83.1126C527.487 86.9584 526.513 90.7069 526.245 94.6015C525.953 98.3256 526.124 102.074 526.489 105.774ZM525.588 83.1613C520.404 83.2586 515.195 83.356 509.986 83.4534C508.988 90.9747 507.698 98.0579 507.771 105.652C513.296 105.677 518.822 105.701 524.371 105.75C523.3 98.4717 523.008 90.0984 525.588 83.1613ZM508.063 83.4777C502.976 83.5751 497.888 83.6724 492.801 83.7698C492.972 90.4635 491.998 97.3276 491.511 103.948C491.462 104.484 491.049 104.752 490.635 104.752C490.221 104.752 489.832 104.484 489.832 103.948C490.1 97.3276 489.929 90.4392 490.805 83.8185C486.959 83.8915 483.089 83.9645 479.243 84.0375C479.365 84.1592 479.438 84.3053 479.414 84.5244C478.27 91.6562 477.004 98.4716 477.175 105.701C481.653 105.677 486.156 105.677 490.635 105.677C495.893 105.652 501.15 105.628 506.408 105.652C505.653 98.4473 505.726 90.3175 508.063 83.4777ZM478.513 84.0619C472.988 84.1592 467.438 84.2566 461.913 84.354C461.718 90.8773 461.329 97.352 461.548 103.924C461.548 104.289 461.28 104.459 461.012 104.459C460.72 104.459 460.428 104.289 460.404 103.924C459.893 97.5954 459.576 90.853 460.185 84.4026C455.389 84.4757 450.619 84.573 445.824 84.6461C445.945 91.7049 444.996 98.9098 444.436 105.92C449.961 105.871 455.487 105.847 461.012 105.823C466.075 105.774 471.162 105.725 476.225 105.701C475.714 98.5934 475.884 90.9747 478.343 84.2323C478.392 84.1349 478.465 84.1106 478.513 84.0619ZM444.558 84.6704C441.077 84.7191 437.572 84.7921 434.091 84.8408C433.897 84.8408 433.75 84.7921 433.58 84.7434C433.726 85.0112 433.799 85.3033 433.824 85.644C434.262 92.5081 433.921 99.2749 433.093 105.993C436.428 105.969 439.787 105.944 443.122 105.92C443.511 98.9098 443.535 91.6319 444.558 84.6704Z" fill="black"/>
<path d="M608.979 89.6582C626.894 183.37 636.363 278.811 635.438 374.251C635.389 381.334 636.874 405.212 629.328 407.744C628.452 408.036 623.219 405.967 621.588 405.845C617.085 405.529 612.582 406.478 608.371 407.914C603.284 409.667 586.343 423.2 581.864 418.746C579.844 416.726 580.476 403.338 580.282 400.636C579.771 393.675 579.357 386.738 579.016 379.776C576.777 333.456 578.164 286.94 583.154 240.815C586.221 212.579 590.651 184.49 596.42 156.693C601.044 134.372 606.911 112.368 608.979 89.6582Z" fill="#EE7882"/>
<path d="M597.54 82.2109C600.485 82.1865 603.43 82.1379 606.375 82.1135C605.378 90.9979 603.99 99.8093 602.359 108.621C602.262 108.596 602.189 108.548 602.067 108.523C598.294 108.28 594.522 108.061 590.749 107.842C593.28 99.4442 596.201 90.7788 597.54 82.2109Z" fill="#EE7882"/>
<path d="M589.263 112.078C593.426 112.054 597.588 112.03 601.75 111.957C596.492 139.437 589.166 166.65 584.712 194.204C579.138 228.768 575.559 263.649 574.05 298.626C572.492 334.943 573.15 371.332 576.022 407.576C576.338 411.568 576.046 418.31 578.31 422.521C547.933 426.708 517.263 428.217 486.618 426.683C470.602 425.904 454.586 424.322 438.716 421.937C431.949 420.89 425.085 419.868 418.464 417.945C412.184 416.119 406.61 412.76 400.33 411.008C400.208 410.959 400.087 410.983 399.989 411.032C399.989 410.91 400.038 410.813 400.014 410.691C393.393 354.61 394.707 298.699 403.3 242.886C407.438 216.062 412.987 189.458 419.511 163.121C423.989 145.036 430.172 126.878 432.776 108.354C432.801 108.354 432.825 108.379 432.874 108.379C480.265 109.547 527.973 111.859 575.462 112.054C575.827 112.395 576.436 112.37 576.85 112.078C580.574 112.078 584.298 112.078 588.022 112.078C588.387 112.322 588.898 112.346 589.263 112.078ZM547.446 183.47C550.537 178.018 551.9 171.786 551.438 165.458C551.365 164.265 550.683 163.316 549.539 162.951C546.521 162.001 542.918 161.222 540.144 163.072C538.659 164.07 538.878 166.358 540.655 166.894C542.529 167.478 544.452 167.356 546.375 167.6C546.545 173.222 545.401 178.529 542.894 183.616C534.01 186.269 533.012 174.269 533.888 167.283C534.277 164.095 537.953 144.671 543.624 148.297C545.377 149.393 547.494 146.74 545.864 145.377C533.791 135.3 528.217 166.626 528.265 172.979C528.314 179.04 530.018 186.099 536.249 188.606C540.509 190.31 546.302 189.385 547.519 184.492C547.616 184.127 547.592 183.786 547.446 183.47ZM546.01 334.334C551.9 325.06 546.277 312.817 541.507 304.371C534.74 292.371 513.977 267.129 499.202 281.004C494.407 277.06 488.444 274.967 480.898 276.111C474.935 277.036 470.456 279.567 467.121 283.146L467.048 283.073C467.511 282.61 467.584 281.807 466.829 281.369C458.042 276.184 448.111 278.423 440.76 285.166C435.016 290.399 431.632 297.701 428.225 304.517C424.062 312.793 418.927 319.486 413.085 326.643C407.365 333.628 405.15 341.101 412.33 347.941C421.142 356.363 427.543 351.787 433.823 344.947C432.996 360.72 442.05 375.251 455.024 383.673C448.987 401.612 468.801 404.777 484.306 403.146C493.458 402.172 526.099 395.843 514.148 380.046C515.705 378.902 517.215 377.612 518.626 376.176C527.949 366.781 532.257 353.539 531.235 340.492C536.76 342.269 542.699 339.519 546.01 334.334ZM539.34 229.377C539.681 217.085 528.533 208.298 517.19 207.129C515.73 206.959 514.561 208.468 514.537 209.782C514.172 221.125 513.564 232.517 514.172 243.859C514.196 244.103 514.269 244.298 514.391 244.492C514.342 245.588 514.926 246.683 516.338 247.048C527.462 249.969 539.024 240.841 539.34 229.377ZM509.304 165.823C510.351 159.007 512.152 137.612 500.712 137.904C499.933 137.928 499.324 138.415 498.935 139.048C487.665 143.089 485.231 155.575 485.036 166.577C484.89 174.464 487.032 190.991 499.081 186.147C499.543 185.977 499.884 185.612 500.127 185.222C505.823 182.545 508.525 170.861 509.304 165.823ZM504.265 236.314C506.651 226.139 504.776 215.527 499.373 206.642C498.058 204.452 495.162 205.474 494.675 207.373C488.614 211.559 486.204 218.837 485.377 226.066C484.671 232.176 483.162 244.638 490.05 248.338C497.937 252.549 502.854 242.302 504.265 236.314ZM471.503 241.133C474.837 230.545 473.937 219.105 470.164 208.809C469.628 207.324 468.168 206.886 466.975 207.202C466.634 206.642 465.977 206.253 465.174 206.472C456.533 208.711 454.415 218.229 453.612 226.091C452.979 232.079 450.594 246.999 457.482 250.529C464.468 254.083 469.677 246.951 471.503 241.133ZM454.829 184.882C473.401 177.117 478.659 149.782 462.131 137.174C461.499 136.687 460.744 136.736 460.135 137.076C459.649 136.2 458.213 135.835 457.701 136.955C452.054 149.442 445.823 165.02 444.703 178.772C444.119 186.05 448.501 187.535 454.829 184.882ZM447.454 210.78C449.766 211.024 450.326 207.081 448.014 206.715C444.46 206.18 440.809 205.961 437.206 205.766C437.012 204.135 434.48 203.21 433.726 204.963C428.541 216.817 428.054 233.49 427.275 246.294C427.154 248.314 430.513 248.825 430.853 246.78C431.705 241.523 432.484 236.241 433.336 230.959C433.555 231.056 433.799 231.129 434.091 231.154C436.111 231.251 438.156 231.348 440.176 231.494C443.024 231.689 443.024 226.87 440.176 227.064C438.156 227.21 436.111 227.308 434.091 227.405C434.018 227.405 433.969 227.454 433.896 227.454C434.042 226.675 434.14 225.896 434.286 225.117C435.211 219.811 436.72 214.456 437.133 209.077C440.541 209.758 444.022 210.415 447.454 210.78Z" fill="white"/>
<path d="M579.357 82.3569C584.347 82.3083 589.337 82.2839 594.327 82.2352C591.552 90.3651 590.018 99.2251 588.241 107.696C584.736 107.525 581.231 107.355 577.726 107.185C578.675 99.0547 579.99 90.3651 579.357 82.3569Z" fill="#EE7882"/>
<path d="M576.777 82.4065C575.171 90.2199 575.341 98.9583 575.244 107.088C571.154 106.918 567.065 106.723 562.976 106.577C562.976 106.504 563 106.431 563 106.334C562.684 102.536 562.611 98.7392 563 94.942C563.414 90.6824 564.777 86.7148 565.41 82.5525C569.207 82.4795 573.004 82.4552 576.777 82.4065Z" fill="#EE7882"/>
<path d="M545.937 82.8223C551.633 82.7492 557.329 82.6519 563.024 82.5789C559.763 89.7351 559.933 98.9602 561.029 106.506C555.917 106.36 550.781 106.214 545.645 106.092C546.083 98.4491 546.813 90.4166 545.937 82.8223Z" fill="#EE7882"/>
<path d="M541.507 304.37C546.278 312.817 551.901 325.06 546.01 334.334C542.7 339.519 536.761 342.269 531.235 340.492C532.257 353.539 527.949 366.78 518.627 376.176C517.215 377.612 515.706 378.902 514.148 380.046C526.099 395.843 493.458 402.172 484.306 403.145C468.801 404.776 448.988 401.612 455.024 383.673C442.051 375.251 432.996 360.719 433.823 344.947C427.543 351.786 421.142 356.362 412.33 347.94C405.15 341.101 407.365 333.628 413.085 326.642C418.927 319.486 424.063 312.792 428.225 304.516C431.633 297.701 435.016 290.399 440.76 285.166C448.111 278.423 458.043 276.184 466.83 281.368C467.584 281.807 467.511 282.61 467.049 283.072C466.732 283.364 466.221 283.535 465.71 283.316C443.073 273.701 435.138 302.983 426.594 316.687C423.405 321.798 418.27 325.717 415.373 330.878C410.943 338.715 416.03 350.959 426.034 346.699C428.347 345.725 432.071 341.393 434.651 338.861C435.868 333.482 438.326 329.295 442.44 325.45C450.424 318.001 455.998 312.865 458.481 301.596C460.038 294.512 462.619 287.892 467.122 283.145C470.456 279.567 474.935 277.036 480.898 276.111C488.444 274.967 494.408 277.06 499.203 281.003C513.978 267.129 534.74 292.37 541.507 304.37ZM530.651 335.965C548.176 340.005 543.722 318.342 539.438 309.75C537.345 305.514 534.789 301.571 531.965 297.798C525.272 288.914 512.761 275.648 501.272 282.853C504.46 286.042 507.113 290.058 509.328 294.464C516.485 308.606 527.779 320.046 530.651 335.965ZM512.882 375.3C522.57 367.024 527.462 354.561 526.903 341.928C526.27 327.421 517.677 317.344 510.351 305.758C502.221 292.882 497.061 275.137 477.442 281.685C462.132 286.796 464.98 302.594 459.357 314.228C455.365 322.48 446.432 325.985 441.929 333.774C428.371 357.214 452.761 382.724 475.227 388.054C488.152 385.717 502.854 383.868 512.882 375.3ZM483.844 399.64C488.201 399.178 520.793 393.993 511.446 382.164C511.397 382.091 511.397 382.018 511.349 381.945C499.884 389.028 485.499 390.415 472.331 392.63C470.651 392.922 469.653 391.34 469.896 390.123C465.393 389.052 461.085 387.251 457.069 384.89C454.513 400.468 472.306 400.882 483.844 399.64Z" fill="black"/>
<path d="M544.039 106.064C538.173 105.942 532.331 105.845 526.489 105.772C526.124 102.072 525.953 98.3237 526.246 94.5996C526.513 90.705 527.487 86.9566 527.925 83.1107C533.207 83.0134 538.465 82.9403 543.722 82.8673C542.87 90.413 543.601 98.4454 544.039 106.064Z" fill="#EE7882"/>
<path d="M539.438 309.749C543.722 318.341 548.177 340.005 530.651 335.964C527.779 320.045 516.485 308.605 509.329 294.463C507.114 290.057 504.46 286.041 501.272 282.853C512.761 275.648 525.272 288.913 531.966 297.798C534.789 301.571 537.345 305.514 539.438 309.749Z" fill="white"/>
<path d="M517.191 207.129C528.533 208.297 539.681 217.084 539.341 229.376C539.024 240.841 527.462 249.968 516.339 247.048C514.927 246.682 514.343 245.587 514.391 244.492C514.27 244.297 514.197 244.102 514.172 243.859C513.564 232.516 514.172 221.125 514.537 209.782C514.562 208.467 515.73 206.958 517.191 207.129ZM517.799 241.766C526.61 243.737 534.789 235.851 533.718 227.015C532.842 219.762 526.464 214.601 519.673 212.897C519.138 222.512 518.602 232.175 517.385 241.717C517.507 241.741 517.653 241.741 517.799 241.766Z" fill="black"/>
<path d="M533.718 227.013C534.789 235.849 526.611 243.736 517.799 241.764C517.653 241.74 517.507 241.74 517.385 241.715C518.602 232.174 519.138 222.51 519.673 212.896C526.464 214.6 532.842 219.76 533.718 227.013Z" fill="white"/>
<path d="M526.903 341.929C527.462 354.562 522.57 367.024 512.882 375.3C502.854 383.868 488.152 385.718 475.227 388.055C452.761 382.724 428.371 357.215 441.929 333.775C446.432 325.986 455.365 322.481 459.357 314.229C464.98 302.594 462.132 286.797 477.442 281.685C497.061 275.138 502.221 292.882 510.351 305.759C517.677 317.345 526.27 327.422 526.903 341.929ZM495.065 340.59C495.771 339.519 495.041 338.107 493.921 337.742C486.01 335.333 477.978 333.872 469.75 333.264C468.363 333.166 467.754 334.554 467.901 335.673C468.947 343.122 472.33 349.596 477.88 354.659C477.905 354.684 477.929 354.708 477.977 354.732C477.734 357.483 477.539 360.258 477.418 363.008C475.105 363.495 472.915 364.542 471.089 366.099C469.945 367.073 471.454 369.069 472.696 368.168C476.76 365.174 481.604 365.223 485.815 367.949C487.714 369.166 489.369 366.197 487.568 364.955C485.523 363.519 483.187 362.838 480.825 362.74C480.679 360.209 480.533 357.677 480.314 355.17C480.582 355.122 480.874 355.049 481.166 354.854C486.765 351.057 491.292 346.189 495.065 340.59ZM493.19 318.075C493.264 316.493 493.556 315.032 492.777 313.596C492.168 312.477 490.416 312.477 489.807 313.596C489.028 315.032 489.32 316.493 489.393 318.075C489.442 319.706 489.515 321.361 489.564 322.992C489.661 325.207 492.923 325.207 493.02 322.992C493.069 321.361 493.142 319.706 493.19 318.075ZM475.884 315.836C476.055 315.178 475.909 314.521 475.689 313.888C475.422 313.012 474.521 312.452 473.596 312.696C469.969 313.645 470.456 319.438 471.406 322.213C472.16 324.428 475.324 323.552 474.886 321.264C474.643 320.047 474.692 318.757 475.057 317.588C475.276 316.955 475.714 316.444 475.884 315.836Z" fill="white"/>
<path d="M509.986 83.452C515.195 83.3546 520.404 83.2573 525.588 83.1599C523.008 90.097 523.3 98.4703 524.371 105.748C518.821 105.7 513.296 105.675 507.771 105.651C507.698 98.0565 508.988 90.9733 509.986 83.452Z" fill="#EE7882"/>
<path d="M511.446 382.163C520.793 393.992 488.201 399.177 483.844 399.639C472.306 400.881 454.513 400.467 457.069 384.889C461.085 387.25 465.393 389.051 469.896 390.122C469.653 391.339 470.651 392.921 472.33 392.629C485.499 390.414 499.884 389.027 511.349 381.944C511.397 382.017 511.397 382.09 511.446 382.163Z" fill="white"/>
<path d="M500.712 137.905C512.152 137.613 510.351 159.009 509.304 165.824C508.525 170.863 505.823 182.546 500.127 185.224C499.884 185.613 499.543 185.978 499.081 186.149C487.032 190.993 484.89 174.465 485.036 166.579C485.231 155.577 487.665 143.09 498.935 139.049C499.324 138.416 499.933 137.93 500.712 137.905ZM497.182 181.84C504.29 177.897 509.499 147.155 500.006 142.043C493.555 146.181 490.829 153.07 490.196 160.713C489.71 166.408 487.884 181.621 497.182 181.84Z" fill="black"/>
<path d="M492.801 83.7666C497.888 83.6692 502.976 83.5719 508.063 83.4745C505.726 90.3143 505.653 98.4441 506.408 105.649C501.15 105.625 495.892 105.649 490.635 105.673V104.748C491.048 104.748 491.462 104.481 491.511 103.945C491.998 97.3244 492.971 90.4603 492.801 83.7666Z" fill="#EE7882"/>
<path d="M499.373 206.64C504.777 215.525 506.651 226.137 504.266 236.312C502.854 242.3 497.937 252.547 490.051 248.336C483.162 244.636 484.671 232.174 485.377 226.064C486.205 218.835 488.615 211.557 494.675 207.371C495.162 205.472 498.059 204.45 499.373 206.64ZM498.667 237.261C499.714 234.048 500.152 230.665 500.128 227.306C500.128 221.537 498.643 216.377 496.111 211.362C490.124 218.227 487.641 231.225 490.391 239.549C492.412 245.683 497.328 241.496 498.667 237.261Z" fill="black"/>
<path d="M500.006 142.043C509.499 147.154 504.29 177.897 497.182 181.84C487.884 181.621 489.71 166.408 490.196 160.712C490.829 153.069 493.556 146.181 500.006 142.043Z" fill="white"/>
<path d="M500.128 227.305C500.152 230.664 499.714 234.047 498.668 237.26C497.329 241.496 492.412 245.682 490.392 239.548C487.641 231.224 490.124 218.226 496.112 211.362C498.643 216.376 500.128 221.536 500.128 227.305Z" fill="white"/>
<path d="M493.921 337.739C495.04 338.104 495.77 339.516 495.064 340.587C491.292 346.186 486.764 351.054 481.166 354.851C480.874 355.046 480.582 355.119 480.314 355.167C480.533 357.674 480.679 360.206 480.825 362.737C483.186 362.835 485.523 363.516 487.567 364.952C489.369 366.194 487.714 369.163 485.815 367.946C481.604 365.22 476.76 365.171 472.695 368.165C471.454 369.066 469.945 367.07 471.089 366.096C472.914 364.539 475.105 363.492 477.417 363.005C477.539 360.255 477.734 357.48 477.977 354.729C477.928 354.705 477.904 354.681 477.88 354.656C472.33 349.593 468.947 343.119 467.9 335.67C467.754 334.551 468.363 333.163 469.75 333.261C477.977 333.869 486.01 335.33 493.921 337.739ZM479.146 351.419C483.405 348.328 487.056 344.847 490.172 340.709C484.208 339.054 478.172 337.91 471.989 337.301C473.036 342.632 475.446 347.476 478.951 351.638C479.024 351.565 479.073 351.492 479.146 351.419Z" fill="black"/>
<path d="M492.777 313.595C493.555 315.031 493.263 316.491 493.19 318.073C493.142 319.704 493.069 321.359 493.02 322.99C492.923 325.204 489.661 325.204 489.564 322.99C489.515 321.359 489.442 319.704 489.393 318.073C489.32 316.491 489.028 315.031 489.807 313.595C490.416 312.475 492.168 312.475 492.777 313.595Z" fill="black"/>
<path d="M479.244 84.0364C483.089 83.9634 486.96 83.8904 490.806 83.8174C489.929 90.4381 490.1 97.3265 489.832 103.947C489.832 104.483 490.221 104.75 490.635 104.75V105.675C486.156 105.675 481.653 105.675 477.175 105.7C477.004 98.4705 478.27 91.6551 479.414 84.5233C479.438 84.3042 479.365 84.1581 479.244 84.0364Z" fill="#EE7882"/>
<path d="M490.173 340.709C487.057 344.847 483.406 348.327 479.146 351.419C479.073 351.492 479.025 351.565 478.952 351.638C475.447 347.475 473.037 342.632 471.99 337.301C478.173 337.91 484.209 339.054 490.173 340.709Z" fill="white"/>
<path d="M461.913 84.3524C467.438 84.255 472.988 84.1577 478.513 84.0603C478.464 84.109 478.391 84.1333 478.343 84.2307C475.884 90.9731 475.714 98.5918 476.225 105.699C471.162 105.724 466.075 105.772 461.012 105.821V104.458C461.28 104.458 461.547 104.288 461.547 103.922C461.328 97.3504 461.718 90.8757 461.913 84.3524Z" fill="#EE7882"/>
<path d="M475.689 313.89C475.908 314.522 476.054 315.18 475.884 315.837C475.713 316.445 475.275 316.956 475.056 317.589C474.691 318.757 474.643 320.047 474.886 321.264C475.324 323.552 472.16 324.428 471.406 322.213C470.456 319.439 469.97 313.646 473.596 312.697C474.521 312.454 475.421 313.013 475.689 313.89Z" fill="black"/>
<path d="M470.164 208.808C473.937 219.105 474.838 230.545 471.503 241.133C469.678 246.95 464.469 254.082 457.483 250.529C450.594 246.999 452.98 232.078 453.613 226.09C454.416 218.228 456.534 208.711 465.175 206.472C465.978 206.253 466.635 206.642 466.976 207.202C468.168 206.885 469.629 207.324 470.164 208.808ZM468.534 227.478C468.607 221.563 467.414 215.892 465.418 210.342C459.868 214.577 458.773 222.269 458.383 228.816C458.213 231.591 458.262 234.366 458.335 237.117C458.432 241.06 457.142 242.545 461.913 242.934C466.976 243.372 466.708 240.305 467.609 235.948C468.193 233.174 468.509 230.326 468.534 227.478Z" fill="black"/>
<path d="M465.418 210.342C467.414 215.892 468.607 221.563 468.534 227.478C468.509 230.326 468.193 233.174 467.609 235.948C466.708 240.305 466.976 243.372 461.913 242.934C457.142 242.545 458.432 241.06 458.335 237.117C458.262 234.366 458.213 231.591 458.383 228.817C458.773 222.269 459.868 214.577 465.418 210.342Z" fill="white"/>
<path d="M467.049 283.069L467.122 283.142C462.619 287.888 460.039 294.509 458.481 301.592C455.998 312.862 450.424 317.998 442.44 325.446C438.327 329.292 435.868 333.479 434.651 338.858C432.071 341.389 428.347 345.722 426.035 346.696C416.031 350.955 410.943 338.712 415.373 330.874C418.27 325.714 423.406 321.795 426.594 316.683C435.138 302.98 443.073 273.698 465.71 283.312C466.221 283.531 466.732 283.361 467.049 283.069Z" fill="white"/>
<path d="M459.527 140.677C464.59 147.541 468.631 154.527 466.61 163.484C465.223 169.642 459.527 179.598 452.541 180.328C449.937 182.202 449.134 181.034 450.18 176.823C450.643 174.656 451.13 172.466 451.641 170.299C452.395 167.038 453.199 163.8 454.051 160.563C455.803 153.918 457.75 147.322 459.527 140.677Z" fill="white"/>
<path d="M462.132 137.174C478.659 149.782 473.401 177.117 454.829 184.882C448.501 187.535 444.119 186.05 444.703 178.772C445.823 165.02 452.054 149.442 457.702 136.955C458.213 135.835 459.649 136.2 460.136 137.077C460.744 136.736 461.499 136.687 462.132 137.174ZM466.61 163.486C468.631 154.529 464.59 147.543 459.527 140.679C457.75 147.324 455.803 153.92 454.05 160.565C453.198 163.803 452.395 167.04 451.641 170.302C451.13 172.468 450.643 174.659 450.18 176.825C449.134 181.036 449.937 182.204 452.541 180.33C459.527 179.6 465.223 169.645 466.61 163.486Z" fill="black"/>
<path d="M461.012 104.461V105.824C455.487 105.848 449.962 105.872 444.436 105.921C444.996 98.9109 445.945 91.706 445.824 84.6472C450.619 84.5742 455.389 84.4768 460.185 84.4038C459.576 90.8541 459.893 97.5965 460.404 103.925C460.428 104.29 460.72 104.461 461.012 104.461Z" fill="#EE7882"/>
<path d="M448.014 206.715C450.326 207.08 449.767 211.023 447.454 210.78C444.022 210.415 440.542 209.758 437.134 209.076C436.72 214.455 435.211 219.81 434.286 225.117C434.14 225.896 434.043 226.674 433.896 227.453C433.969 227.453 434.018 227.405 434.091 227.405C436.112 227.307 438.156 227.21 440.176 227.064C443.024 226.869 443.024 231.689 440.176 231.494C438.156 231.348 436.112 231.25 434.091 231.153C433.799 231.129 433.556 231.056 433.337 230.958C432.485 236.24 431.706 241.522 430.854 246.78C430.513 248.825 427.154 248.313 427.276 246.293C428.055 233.49 428.541 216.816 433.726 204.962C434.481 203.21 437.012 204.135 437.207 205.766C440.809 205.96 444.46 206.179 448.014 206.715Z" fill="black"/>
<path d="M434.091 84.8398C437.572 84.7911 441.077 84.7181 444.558 84.6694C443.535 91.6309 443.511 98.9088 443.122 105.919C439.787 105.943 436.428 105.968 433.093 105.992C433.921 99.2739 434.262 92.5072 433.824 85.6431C433.799 85.3023 433.726 85.0102 433.58 84.7425C433.75 84.7911 433.896 84.8398 434.091 84.8398Z" fill="#EE7882"/>
</svg>
