<svg width="400" height="377" viewBox="0 0 400 377" fill="none" xmlns="http://www.w3.org/2000/svg">
<path d="M56.88 162.394C56.88 162.394 53.8071 204.391 79.9271 230.512C106.047 256.632 101.95 331.921 95.8041 342.676C95.8041 342.676 87.097 346.261 88.122 352.407C89.146 358.553 109.633 365.723 116.803 348.31C123.973 330.896 123.973 278.656 127.046 226.927C130.12 175.198 56.88 162.394 56.88 162.394Z" fill="#B25D00"/>
<path d="M88.355 242.401C98.7401 249.395 109.558 255.796 119.449 263.549C121.348 265.037 123.202 266.561 125.034 268.104C125.616 254.799 126.22 240.847 127.047 226.926C130.12 175.197 56.88 162.393 56.88 162.393C56.88 162.393 53.8071 204.39 79.9271 230.511C83.1931 233.777 85.979 237.821 88.355 242.401Z" fill="#964B00"/>
<path d="M99.9101 320.337C99.1441 331.276 97.5591 339.607 95.8051 342.676C95.8051 342.676 87.0981 346.261 88.1231 352.407C89.1471 358.553 109.634 365.723 116.804 348.31C119.873 340.858 121.626 327.014 122.871 309.574C116.027 314.691 108.165 318.408 99.9101 320.337Z" fill="white"/>
<path d="M95.8051 342.676C95.8051 342.676 95.5481 342.833 95.0971 343.108C94.6471 343.379 94.0251 343.798 93.3001 344.311C92.5821 344.835 91.7661 345.465 90.9801 346.214C90.7921 346.408 90.6011 346.604 90.4081 346.803C90.2331 347.014 90.0561 347.228 89.8781 347.443C89.5471 347.886 89.2321 348.352 89.0251 348.857C88.8831 349.097 88.8231 349.359 88.7471 349.616C88.7131 349.745 88.6611 349.872 88.6391 350.002L88.6061 350.396C88.5731 350.658 88.5521 350.918 88.5991 351.176C88.6391 351.421 88.6171 351.72 88.7011 351.918C88.7801 352.188 88.8571 352.454 88.9321 352.714L89.0391 353.101L89.1951 353.418C89.2951 353.632 89.3931 353.839 89.4881 354.04C89.6001 354.235 89.7391 354.408 89.8571 354.586C90.0791 354.959 90.3951 355.195 90.6261 355.469C90.9071 355.672 91.1411 355.894 91.3741 356.001C91.8151 356.275 92.1121 356.357 92.1121 356.357C92.1121 356.357 92.0351 356.36 91.8951 356.335C91.7531 356.316 91.5421 356.286 91.2891 356.192C91.0221 356.128 90.7421 355.955 90.3921 355.794C90.0941 355.566 89.6851 355.362 89.3891 354.989C89.2301 354.813 89.0471 354.64 88.8861 354.436C88.7481 354.211 88.6051 353.979 88.4581 353.74L88.2381 353.37L88.0911 352.995C87.9961 352.741 87.9001 352.482 87.8021 352.218C87.6601 351.893 87.6721 351.6 87.6011 351.279C87.5801 351.121 87.5401 350.963 87.5371 350.801L87.5681 350.313L87.6041 349.821C87.6281 349.659 87.6831 349.503 87.7221 349.343C87.8081 349.025 87.8841 348.699 88.0421 348.414C88.3061 347.812 88.6791 347.285 89.0651 346.792C89.4591 346.304 89.9081 345.892 90.3471 345.508C90.7971 345.138 91.2481 344.802 91.6971 344.524C92.1331 344.224 92.5781 343.999 92.9811 343.782C94.6211 342.962 95.8051 342.676 95.8051 342.676Z" fill="#964B00"/>
<path d="M97.3001 347.666C97.3001 347.666 97.0681 347.837 96.6631 348.138C96.2551 348.43 95.7011 348.887 95.0561 349.437C94.4211 349.996 93.6941 350.665 93.0601 351.467C92.4371 352.263 91.8781 353.213 91.8451 354.186C91.8141 354.667 91.9141 355.146 92.1201 355.59C92.3161 356.031 92.6401 356.456 92.9501 356.805C93.3441 357.208 93.6531 357.518 94.0371 357.771C94.4081 358.037 94.7981 358.216 95.1741 358.343C95.9331 358.58 96.6431 358.55 97.1191 358.429C97.5981 358.318 97.8611 358.183 97.8611 358.183C97.8611 358.183 97.6571 358.397 97.1891 358.626C96.7281 358.839 95.9711 359.095 95.0381 358.946C94.5811 358.871 94.0831 358.726 93.6231 358.459C93.1491 358.221 92.6701 357.84 92.2971 357.492C91.8711 357.065 91.4591 356.632 91.1831 356.041C90.9001 355.469 90.7381 354.798 90.7701 354.132C90.8551 352.781 91.5861 351.671 92.3411 350.852C93.1071 350.017 93.9491 349.409 94.6911 348.942C95.4331 348.472 96.1001 348.173 96.5581 347.959C97.0211 347.751 97.3001 347.666 97.3001 347.666Z" fill="#964B00"/>
<path d="M100.104 351.171C100.104 351.171 99.8161 351.507 99.3601 352.123C99.1341 352.432 98.8661 352.811 98.5951 353.264C98.3271 353.718 98.0451 354.242 97.8141 354.829C97.6031 355.416 97.4191 356.08 97.4881 356.732C97.5611 357.384 97.9561 357.94 98.5501 358.344C98.6951 358.43 98.8721 358.571 98.9891 358.617L99.5721 358.86C99.7741 358.961 99.9491 358.973 100.134 359.021C100.321 359.056 100.487 359.129 100.691 359.144C101.485 359.251 102.317 359.26 103.142 359.121C103.971 359.021 104.788 358.791 105.581 358.533C105.971 358.381 106.358 358.23 106.74 358.081C107.112 357.905 107.488 357.746 107.845 357.564C108.557 357.192 109.228 356.8 109.854 356.402C110.46 355.978 111.042 355.584 111.543 355.17C112.065 354.78 112.488 354.359 112.901 354.022C113.278 353.646 113.606 353.318 113.876 353.049C114.382 352.476 114.687 352.152 114.687 352.152C114.687 352.152 114.462 352.529 114.039 353.181C113.804 353.491 113.519 353.866 113.193 354.298C112.828 354.696 112.453 355.189 111.953 355.635C111.482 356.113 110.924 356.579 110.32 357.059C110.006 357.284 109.684 357.515 109.355 357.751C109.018 357.977 108.655 358.179 108.296 358.401C107.558 358.811 106.77 359.2 105.932 359.515C105.085 359.804 104.207 360.067 103.291 360.19C102.38 360.327 101.437 360.311 100.52 360.171C100.07 360.082 99.5501 359.948 99.1671 359.777L98.5951 359.509C98.3331 359.381 98.1931 359.242 97.9901 359.109C97.2391 358.579 96.7091 357.673 96.6901 356.796C96.6581 355.924 96.9601 355.198 97.2531 354.581C97.5591 353.963 97.9301 353.464 98.2701 353.038C98.6111 352.613 98.9341 352.268 99.2041 351.989C99.7501 351.438 100.104 351.171 100.104 351.171Z" fill="#964B00"/>
<path d="M79.9281 230.512C80.7631 231.401 81.6171 232.273 82.4371 233.175C83.1931 234.133 83.9771 235.077 84.7151 236.054C85.4011 237.066 86.0951 238.075 86.7601 239.103L88.5991 242.283L90.2441 245.568C90.7571 246.68 91.2281 247.81 91.7231 248.932C92.6411 251.202 93.5141 253.495 94.2541 255.831C94.6561 256.99 95.0041 258.164 95.3351 259.344C95.6731 260.522 96.0151 261.699 96.2901 262.893C96.9031 265.266 97.4041 267.664 97.9041 270.063C98.3471 272.471 98.7971 274.88 99.1431 277.305C99.3401 278.514 99.5031 279.728 99.6521 280.943C99.8041 282.158 99.9781 283.371 100.092 284.59C100.367 287.024 100.578 289.464 100.769 291.905C100.933 294.348 101.094 296.793 101.179 299.24C101.242 300.463 101.264 301.688 101.279 302.913C101.299 304.137 101.326 305.362 101.313 306.587C101.321 309.037 101.272 311.486 101.197 313.936C101.112 316.385 100.985 318.833 100.814 321.28C100.629 323.726 100.414 326.171 100.114 328.611C99.8291 331.052 99.4461 333.488 98.9771 335.918C98.4411 338.35 97.9391 340.759 96.7061 343.191L96.5651 343.469L96.2001 343.636C93.7191 344.769 91.2091 346.498 89.8811 348.721C89.7191 348.999 89.6091 349.294 89.4641 349.576L89.2051 350.465C89.1841 350.769 89.1301 351.069 89.1201 351.373L89.1591 351.83L89.1821 352.204C89.2291 352.378 89.2741 352.576 89.3241 352.731C89.3801 352.828 89.4281 352.926 89.4691 353.029C89.6131 353.265 89.7611 353.533 89.9711 353.77C90.3551 354.262 90.8551 354.711 91.3951 355.115C93.5851 356.732 96.3591 357.703 99.1391 358.06C101.93 358.412 104.806 358.11 107.373 357.043C108.656 356.512 109.857 355.796 110.94 354.922C112.01 354.03 112.949 352.984 113.774 351.846C114.587 350.696 115.252 349.436 115.824 348.13C116.071 347.542 116.325 346.762 116.576 346.087L116.951 345.038L117.237 343.994L117.812 341.907C117.987 341.201 118.13 340.474 118.29 339.758C118.625 338.328 118.888 336.876 119.132 335.42C119.404 333.97 119.619 332.508 119.822 331.042C120.038 329.579 120.244 328.114 120.418 326.642C120.809 323.706 121.102 320.753 121.414 317.803C121.682 314.847 121.967 311.892 122.188 308.93C122.669 303.009 123.047 297.077 123.411 291.144L125.592 255.529L125.115 273.366C124.937 279.311 124.773 285.258 124.532 291.202C124.277 297.146 124.006 303.09 123.633 309.033C123.466 312.005 123.233 314.975 123.019 317.946C122.76 320.915 122.52 323.886 122.18 326.852C122.036 328.337 121.851 329.819 121.635 331.298C121.44 332.779 121.231 334.259 120.963 335.734C120.724 337.212 120.466 338.688 120.132 340.156C119.972 340.892 119.832 341.626 119.654 342.363L119.056 344.579L118.755 345.687L118.386 346.74C118.123 347.46 117.928 348.1 117.609 348.886C116.998 350.307 116.278 351.692 115.381 352.978C114.472 354.253 113.42 355.44 112.208 356.46C110.983 357.463 109.612 358.293 108.152 358.907C105.227 360.143 101.991 360.491 98.8881 360.118C95.7851 359.727 92.7441 358.718 90.1221 356.818C89.4711 356.336 88.8481 355.79 88.3081 355.116C88.0261 354.793 87.7951 354.416 87.5621 354.014C87.4511 353.778 87.3471 353.537 87.2501 353.295C87.1881 353.097 87.1501 352.931 87.0991 352.747L87.0611 352.586L87.0541 352.504L87.0411 352.341L87.0161 352.014L86.9731 351.359C86.9871 350.923 87.0571 350.485 87.1061 350.05C87.2161 349.631 87.3391 349.21 87.4771 348.801C87.6631 348.418 87.8271 348.017 88.0411 347.655C88.9031 346.201 90.0831 345.062 91.3361 344.104C92.6081 343.143 93.9211 342.372 95.4111 341.719L94.9051 342.164C95.9021 340.24 96.4791 337.83 96.9881 335.513C97.4571 333.156 97.8481 330.772 98.1421 328.369C98.4521 325.969 98.6791 323.554 98.8771 321.137C99.0601 318.718 99.2011 316.295 99.2991 313.869C99.3871 311.443 99.4511 309.015 99.4581 306.585C99.4711 304.156 99.4491 301.727 99.3811 299.299C99.3411 296.87 99.2251 294.443 99.1071 292.016C98.9621 289.591 98.7961 287.166 98.5671 284.747C98.4751 283.535 98.3241 282.33 98.1961 281.122C98.0701 279.913 97.9301 278.707 97.7571 277.504C97.4571 275.092 97.0541 272.697 96.6591 270.3C96.2061 267.914 95.7531 265.527 95.1881 263.165C94.9391 261.975 94.6141 260.806 94.3111 259.63C94.0181 258.451 93.7081 257.277 93.3441 256.119C92.6801 253.782 91.8831 251.487 91.0401 249.21C90.5831 248.086 90.1491 246.95 89.6731 245.833L88.1391 242.528L86.4091 239.32L84.4781 236.226C83.7861 235.229 83.0471 234.264 82.3311 233.278C81.5461 232.339 80.7271 231.433 79.9281 230.512Z" fill="#964B00"/>
<path d="M215.251 199.865C215.251 199.865 211.654 250.226 235.293 271.81C258.932 293.393 284.626 301.616 278.974 334.504L277.432 343.24C277.432 343.24 271.265 345.81 270.751 350.435C270.237 355.06 290.793 362.254 295.418 347.352C300.043 332.45 294.39 320.63 297.474 301.616C300.557 282.602 291.821 289.797 278.46 275.408C265.099 261.019 272.293 244.575 281.029 221.963C289.765 199.351 229.126 194.212 215.251 199.865Z" fill="#B25D00"/>
<path d="M297.225 303.271C294.009 307.431 289.598 310.569 284.186 311.614C281.578 312.117 279.144 311.955 276.846 311.329C279.619 317.617 280.6 325.035 278.973 334.504L277.431 343.24C277.431 343.24 271.264 345.81 270.75 350.435C270.236 355.06 290.792 362.254 295.417 347.352C299.907 332.886 294.714 321.325 297.225 303.271Z" fill="white"/>
<path d="M245.687 245.691C254.796 250.487 263.846 256.288 271.773 263.235C269.101 251.698 274.649 238.476 281.029 221.962C289.765 199.351 229.126 194.212 215.251 199.865C215.251 199.865 214.02 217.14 217.746 235.79C227.608 237.268 237.373 241.314 245.687 245.691Z" fill="#964B00"/>
<path d="M277.303 343.325C277.303 343.325 277.093 343.463 276.726 343.704C276.357 343.938 275.853 344.309 275.259 344.75C274.67 345.199 274.002 345.74 273.363 346.379C272.731 347.019 272.119 347.766 271.775 348.604C271.596 349.018 271.492 349.454 271.481 349.886C271.471 350.102 271.484 350.317 271.516 350.529C271.536 350.627 271.553 350.756 271.573 350.829L271.675 351.168C271.812 351.599 271.966 351.951 272.183 352.305C272.394 352.645 272.635 352.943 272.885 353.197C273.393 353.696 273.921 354.025 274.313 354.203C274.703 354.389 274.948 354.46 274.948 354.46C274.948 354.46 274.694 354.464 274.257 354.363C273.829 354.251 273.202 354.048 272.561 353.577C272.249 353.336 271.922 353.047 271.647 352.678C271.378 352.325 271.105 351.871 270.939 351.415L270.817 351.083C270.765 350.93 270.746 350.82 270.71 350.684C270.655 350.423 270.611 350.15 270.619 349.875C270.62 349.324 270.743 348.769 270.949 348.263C271.381 347.252 272.087 346.433 272.819 345.801C273.549 345.159 274.307 344.677 274.977 344.314C276.324 343.592 277.303 343.325 277.303 343.325Z" fill="#964B00"/>
<path d="M278.775 346.898C278.775 346.898 278.538 347.053 278.122 347.324C277.708 347.593 277.134 348.003 276.476 348.511C275.827 349.023 275.078 349.653 274.498 350.442C274.214 350.835 273.97 351.269 273.899 351.721C273.821 352.168 273.884 352.624 274.132 353.043C274.248 353.253 274.4 353.453 274.566 353.646C274.648 353.732 274.752 353.853 274.815 353.91L275.136 354.178C275.547 354.498 275.966 354.74 276.44 354.953C277.367 355.36 278.315 355.591 279.137 355.733C279.959 355.885 280.662 355.94 281.153 355.966C281.645 356.001 281.929 356 281.929 356C281.929 356 280.811 356.234 279.089 356.158C278.232 356.106 277.22 355.974 276.18 355.595C275.916 355.514 275.665 355.376 275.4 355.265C275.151 355.119 274.856 354.963 274.642 354.794L274.31 354.54C274.16 354.418 274.078 354.326 273.958 354.217C273.74 354.001 273.539 353.755 273.377 353.474C273.039 352.926 272.88 352.204 273.025 351.559C273.151 350.912 273.47 350.369 273.829 349.929C274.558 349.048 275.411 348.471 276.154 348.034C277.66 347.18 278.775 346.898 278.775 346.898Z" fill="#964B00"/>
<path d="M281.278 349.62C281.278 349.62 280.997 349.903 280.551 350.429C280.112 350.95 279.489 351.747 279.067 352.787C278.875 353.304 278.787 353.915 279.048 354.403C279.302 354.897 279.852 355.234 280.518 355.489C281.147 355.722 281.881 355.863 282.615 355.918C283.356 355.968 284.118 355.921 284.871 355.814C287.906 355.374 290.682 353.755 292.334 352.122C293.166 351.306 293.789 350.542 294.175 349.972C294.573 349.408 294.775 349.064 294.775 349.064C294.775 349.064 294.736 349.155 294.663 349.326C294.589 349.497 294.489 349.753 294.321 350.059C294.162 350.37 293.953 350.741 293.684 351.149C293.423 351.563 293.092 352.008 292.693 352.464C291.886 353.361 290.827 354.335 289.5 355.098C288.182 355.868 286.627 356.451 285.002 356.696C283.379 356.928 281.684 356.859 280.196 356.228C279.504 355.938 278.739 355.462 278.428 354.683C278.108 353.906 278.328 353.139 278.585 352.584C279.135 351.444 279.921 350.781 280.42 350.301C280.942 349.836 281.278 349.62 281.278 349.62Z" fill="#964B00"/>
<path d="M215.251 199.865C215.096 203.345 215.124 206.829 215.238 210.306C215.356 213.784 215.57 217.257 215.906 220.718C216.584 227.636 217.687 234.521 219.479 241.221C220.381 244.567 221.399 247.882 222.657 251.104C223.925 254.32 225.402 257.451 227.139 260.424C228.872 263.398 230.874 266.218 233.218 268.717C235.54 271.2 238.232 273.448 240.883 275.662C246.22 280.096 251.87 284.151 257.38 288.444C262.874 292.732 268.363 297.226 272.768 302.829C274.963 305.619 276.848 308.701 278.165 312.036C279.501 315.36 280.298 318.895 280.585 322.451C280.878 326.011 280.68 329.582 280.18 333.085C279.665 336.593 279.007 339.968 278.428 343.417L278.341 343.938L277.82 344.176C276.284 344.879 274.723 345.894 273.566 347.112C272.991 347.727 272.481 348.393 272.169 349.118C271.878 349.785 271.648 350.792 271.866 350.996C272.116 351.532 272.736 352.131 273.421 352.602C274.114 353.084 274.894 353.491 275.7 353.843C277.33 354.521 279.076 354.982 280.845 355.179C284.361 355.605 288.068 354.961 290.767 352.815C292.094 351.734 293.138 350.322 293.859 348.732C294.062 348.346 294.193 347.923 294.346 347.511L294.459 347.201L294.505 347.076L294.552 346.907L294.738 346.229C294.973 345.329 295.273 344.413 295.417 343.534C296.184 339.999 296.433 336.282 296.383 332.591C296.34 328.887 296.04 325.157 295.841 321.401C295.636 317.646 295.543 313.857 295.736 310.073C295.804 308.18 296.007 306.292 296.232 304.412L296.639 301.599C296.776 300.693 296.938 299.746 297.038 298.85C297.257 297.033 297.388 295.19 297.234 293.418C297.055 291.656 296.54 289.979 295.35 288.751C294.181 287.506 292.548 286.61 290.932 285.687C289.301 284.771 287.646 283.832 286.067 282.771C282.902 280.64 280.036 278.132 277.535 275.223L275.75 273.052L274.179 270.62C273.248 268.944 272.399 267.222 271.863 265.379C270.715 261.723 270.484 257.849 270.824 254.086C271.143 250.307 272.048 246.626 273.134 243.032C274.205 239.428 275.502 235.903 276.852 232.406C278.207 228.909 279.632 225.443 281.03 221.965C279.732 225.481 278.406 228.988 277.153 232.518C275.879 236.04 274.66 239.584 273.673 243.188C272.67 246.782 271.855 250.445 271.623 254.151C271.366 257.845 271.685 261.581 272.849 265.062C273.382 266.818 274.226 268.467 275.128 270.046L276.632 272.32L278.445 274.468C280.864 277.209 283.721 279.653 286.8 281.662C288.347 282.672 289.965 283.564 291.613 284.461C293.244 285.375 294.984 286.262 296.424 287.739C297.136 288.475 297.712 289.375 298.082 290.331C298.456 291.287 298.657 292.278 298.775 293.258C298.971 295.222 298.851 297.141 298.649 299.043C298.551 300.011 298.408 300.913 298.277 301.862L297.916 304.617C297.784 305.534 297.745 306.462 297.655 307.383C297.558 308.304 297.52 309.23 297.48 310.156C297.306 313.859 297.412 317.575 297.632 321.301C297.845 325.028 298.164 328.774 298.225 332.566C298.288 336.362 298.064 340.174 297.256 343.973C297.092 344.946 296.808 345.816 296.574 346.729L296.391 347.407L296.345 347.577C296.311 347.698 296.3 347.711 296.276 347.784L296.151 348.135C295.981 348.602 295.833 349.076 295.604 349.524C294.79 351.347 293.564 353.035 291.983 354.327C290.383 355.591 288.49 356.458 286.537 356.884C284.581 357.305 282.577 357.385 280.623 357.156C278.665 356.944 276.75 356.452 274.917 355.698C274.005 355.305 273.112 354.848 272.264 354.264C271.429 353.666 270.581 352.99 270.007 351.828C269.933 351.713 269.871 351.464 269.821 351.274C269.768 351.065 269.731 350.846 269.74 350.764L269.735 350.588L269.732 350.5C269.735 350.424 269.724 350.609 269.738 350.318L269.747 350.267L269.821 349.859C269.899 349.308 270.097 348.792 270.297 348.288C270.728 347.285 271.379 346.441 272.084 345.697C273.531 344.215 275.175 343.155 277.042 342.306L276.434 343.065C277.024 339.647 277.711 336.185 278.22 332.803C278.718 329.418 278.92 325.993 278.656 322.606C278.397 319.221 277.658 315.885 276.41 312.74C275.18 309.585 273.408 306.653 271.311 303.964C267.109 298.566 261.745 294.114 256.298 289.83C250.821 285.561 245.236 281.364 239.9 276.839C237.239 274.554 234.593 272.296 232.187 269.661C229.798 267.045 227.779 264.12 226.047 261.057C222.569 254.926 220.193 248.255 218.541 241.461C216.877 234.661 215.917 227.719 215.383 220.764C214.865 213.806 214.769 206.816 215.251 199.865Z" fill="#964B00"/>
<path d="M367.158 115.864C371.539 127.938 369.949 142.194 365.04 152.649C355.413 173.151 306.548 179.925 306.548 179.925C306.548 179.925 283.302 191.61 313.451 191.686C337.934 191.748 380.052 171.837 378.924 135.62C378.632 126.237 376.98 118.849 374.485 113.032C371.951 113.773 369.458 114.597 367.158 115.864Z" fill="#B25D00"/>
<path d="M367.155 115.857C369.726 115.251 372.287 114.592 374.839 113.881C364.012 87.0872 335.634 92.4224 335.634 92.4224C353.227 94.6791 362.946 104.261 367.155 115.857Z" fill="white"/>
<path d="M345.278 168.977C328.001 176.948 306.547 179.925 306.547 179.925C306.547 179.925 283.3 191.61 313.449 191.686C327.479 191.722 347.289 185.186 361.444 172.794C355.975 171.835 350.573 170.589 345.278 168.977Z" fill="#964B00"/>
<path d="M52.051 140.715C52.051 140.715 57.437 154.72 57.437 176.804C57.437 198.888 68.21 238.209 132.309 246.828C196.408 255.446 200.178 197.811 239.499 205.352C278.82 212.893 271.818 248.982 290.132 265.68C308.446 282.378 328.914 305.001 331.607 314.158C334.3 323.315 333.223 363.713 339.148 364.791C345.073 365.868 346.689 363.175 346.689 363.175C346.689 363.175 352.075 366.407 353.691 362.636C353.691 362.636 361.771 363.713 361.232 355.095C360.693 346.477 350.459 319.006 348.305 306.617C346.151 294.228 338.609 305.54 333.223 281.839C327.836 258.139 324.605 253.291 324.605 233.361C324.605 213.431 320.296 163.337 265.893 136.405C211.49 109.473 178.633 117.553 178.633 117.553C178.633 117.553 145.776 97.623 124.769 100.855C103.761 104.088 52.051 140.715 52.051 140.715Z" fill="#CD7100"/>
<path d="M349.865 313.495C347.695 316.188 345.228 318.635 342.364 320.705C339.662 322.657 336.422 324.138 333.027 324.964C334.182 340.224 334.624 363.969 339.149 364.792C345.074 365.869 346.69 363.176 346.69 363.176C346.69 363.176 352.076 366.408 353.692 362.637C353.692 362.637 361.772 363.714 361.233 355.096C360.779 347.841 353.455 327.226 349.865 313.495Z" fill="white"/>
<path d="M119.561 137.843C139.192 126.886 148.657 113.616 152.955 105.395C143.581 102.005 133.217 99.556 124.768 100.856C103.761 104.088 52.051 140.716 52.051 140.716C52.051 140.716 88.679 155.079 119.561 137.843Z" fill="#B25D00"/>
<path d="M157.686 246.629C163.854 245.452 169.88 243.471 175.434 240.55C181.014 237.674 186.122 233.971 190.901 229.918C195.698 225.874 200.171 221.462 204.879 217.284C209.587 213.139 214.6 209.131 220.492 206.649C223.431 205.429 226.559 204.639 229.734 204.357C232.908 204.078 236.117 204.242 239.245 204.81C245.427 205.959 251.621 207.994 256.964 211.479C262.337 214.934 266.708 219.825 269.913 225.303C273.159 230.781 275.4 236.725 277.673 242.569C279.947 248.406 282.243 254.265 285.714 259.382C286.575 260.66 287.523 261.876 288.551 263.013C289.568 264.158 290.697 265.189 291.859 266.267C294.17 268.386 296.465 270.56 298.722 272.752C303.239 277.137 307.648 281.632 311.927 286.254C316.2 290.88 320.356 295.622 324.235 300.61C326.174 303.104 328.041 305.664 329.697 308.395C330.106 309.082 330.54 309.749 330.888 310.484C331.244 311.212 331.656 311.898 331.92 312.696C332.609 314.223 332.845 315.879 333.089 317.436C333.926 323.744 334.175 330.015 334.597 336.285C335.005 342.546 335.381 348.819 336.263 354.981C336.492 356.517 336.76 358.045 337.12 359.53C337.302 360.271 337.508 361.001 337.762 361.693C338.014 362.378 338.323 363.054 338.706 363.514C338.895 363.74 339.092 363.888 339.239 363.929L339.294 363.949C339.308 363.956 339.231 363.94 339.3 363.95L339.373 363.959L339.665 363.994L340.25 364.064C340.633 364.1 341.045 364.18 341.404 364.181L342.45 364.153C342.801 364.177 343.143 364.055 343.489 364.01C343.847 363.972 344.161 363.847 344.477 363.728C344.815 363.639 345.067 363.437 345.359 363.289L345.72 363C345.783 362.953 345.815 362.898 345.866 362.849C345.922 362.792 345.956 362.75 345.963 362.742L346.556 362.118L347.124 362.452C347.358 362.59 347.656 362.736 347.93 362.865C348.212 362.993 348.498 363.108 348.786 363.214C349.075 363.313 349.364 363.403 349.654 363.47C349.799 363.514 349.942 363.524 350.086 363.554C350.231 363.586 350.371 363.597 350.511 363.604C350.651 363.614 350.793 363.632 350.923 363.616C351.053 363.602 351.196 363.617 351.315 363.584L351.679 363.506C351.785 363.456 351.891 363.411 352.001 363.369C352.104 363.317 352.184 363.236 352.281 363.177C352.386 363.128 352.442 363.013 352.524 362.933C352.605 362.85 352.685 362.764 352.736 362.641L352.922 362.31L353.233 361.757L353.802 361.81C354.965 361.919 356.298 361.764 357.385 361.312C358.478 360.84 359.351 360.029 359.833 358.954C360.315 357.878 360.464 356.614 360.41 355.336C360.385 354.757 360.271 354.006 360.204 353.35L359.844 351.408C358.709 346.137 357.128 340.894 355.569 335.67C353.995 330.442 352.375 325.222 350.853 319.963C350.085 317.336 349.367 314.689 348.691 312.027C348.384 310.684 348.04 309.355 347.793 307.99L347.592 306.972L347.381 306.01C347.23 305.347 347.103 304.649 346.859 304.103C346.505 302.9 345.8 301.854 344.88 301.09C343.946 300.318 342.685 299.785 341.461 299.038C340.216 298.305 339.133 297.286 338.199 296.189C337.755 295.625 337.374 295.02 336.961 294.435C336.61 293.821 336.292 293.191 335.958 292.569C334.768 290.027 333.871 287.388 333.195 284.715C332.493 282.033 331.895 279.397 331.26 276.731C330.018 271.41 328.625 266.151 327.309 260.832C325.959 255.527 324.945 250.088 324.462 244.611L324.165 240.499C324.11 239.128 324.106 237.756 324.074 236.385C324 233.635 324.037 230.916 323.93 228.202C323.736 222.766 323.198 217.341 322.281 211.979C320.482 201.251 317.101 190.781 312.173 181.074C307.242 171.368 300.609 162.527 292.688 155.033C288.732 151.281 284.478 147.842 279.993 144.729C275.48 141.655 270.754 138.904 265.892 136.409C270.782 138.846 275.545 141.542 280.102 144.569C284.631 147.634 288.937 151.032 292.953 154.752C300.993 162.181 307.775 170.996 312.86 180.719C317.962 190.437 321.393 201.002 323.296 211.804C324.257 217.207 324.836 222.676 325.068 228.158C325.194 230.903 325.175 233.649 325.266 236.361C325.307 237.72 325.32 239.082 325.383 240.439L325.704 244.499C326.218 249.902 327.245 255.232 328.625 260.507C329.964 265.787 331.415 271.081 332.678 276.396C333.997 281.696 334.991 287.105 337.298 291.911C338.423 294.325 340.039 296.42 342.249 297.749C343.349 298.428 344.652 298.954 345.841 299.913C347.016 300.878 347.891 302.212 348.312 303.629C348.608 304.346 348.719 304.998 348.875 305.666C348.952 306.017 349.024 306.292 349.104 306.705L349.302 307.696C349.544 309.019 349.888 310.336 350.192 311.656C350.867 314.288 351.585 316.913 352.356 319.529C353.883 324.763 355.514 329.976 357.102 335.208C358.677 340.448 360.271 345.676 361.45 351.087L361.837 353.174C361.909 353.876 362.013 354.478 362.055 355.262C362.116 356.705 361.97 358.227 361.336 359.65C360.71 361.08 359.454 362.25 358.035 362.846C356.591 363.428 355.133 363.609 353.581 363.47L354.461 362.97L354.166 363.515C354.078 363.7 353.943 363.867 353.795 364.028C353.646 364.186 353.524 364.366 353.333 364.485C353.154 364.611 352.98 364.754 352.787 364.853L352.189 365.107C351.987 365.162 351.782 365.202 351.578 365.245C351.373 365.291 351.177 365.28 350.976 365.297C350.773 365.316 350.583 365.296 350.39 365.283C350.196 365.272 350.005 365.255 349.823 365.218C349.64 365.183 349.448 365.163 349.274 365.112C348.914 365.029 348.566 364.922 348.225 364.805C347.887 364.682 347.554 364.549 347.229 364.402C346.9 364.247 346.597 364.102 346.256 363.903L347.416 363.613C346.725 364.571 345.955 364.956 345.11 365.304C344.692 365.465 344.272 365.62 343.843 365.673C343.414 365.736 342.995 365.87 342.555 365.852L341.246 365.878C340.821 365.871 340.456 365.797 340.058 365.76L339.473 365.691L339.18 365.657L339.107 365.648C339.128 365.65 339.001 365.637 338.968 365.626L338.74 365.563C338.131 365.372 337.712 364.983 337.397 364.615C336.778 363.857 336.451 363.068 336.153 362.289C335.865 361.507 335.643 360.724 335.449 359.94C335.067 358.372 334.8 356.801 334.568 355.231C333.684 348.948 333.324 342.663 332.928 336.389C332.521 330.126 332.279 323.824 331.474 317.669C331.236 316.134 331.026 314.636 330.409 313.286C330.186 312.585 329.786 311.915 329.455 311.232C329.134 310.543 328.711 309.891 328.318 309.228C326.723 306.583 324.888 304.052 322.977 301.584C319.153 296.644 315.03 291.919 310.789 287.307C306.542 282.699 302.16 278.212 297.671 273.835C295.426 271.645 293.164 269.493 290.85 267.361C289.713 266.303 288.519 265.207 287.453 264.002C286.378 262.808 285.393 261.536 284.502 260.209C280.902 254.893 278.638 248.917 276.394 243.062C274.159 237.196 271.977 231.309 268.839 225.936C265.739 220.561 261.545 215.811 256.352 212.421C253.784 210.688 250.956 209.362 248.054 208.27C245.167 207.144 242.122 206.42 239.067 205.794C236.017 205.219 232.9 205.042 229.819 205.291C226.737 205.545 223.699 206.289 220.826 207.459C215.064 209.825 210.05 213.706 205.316 217.785C200.578 221.891 196.044 226.259 191.184 230.259C186.342 234.269 181.166 237.929 175.534 240.749C169.929 243.612 163.864 245.526 157.686 246.629Z" fill="#964B00"/>
<path d="M342.56 352.402C342.56 352.402 342.694 352.839 342.95 353.581C343.204 354.323 343.577 355.374 344.096 356.578C344.362 357.177 344.668 357.811 345.01 358.459C345.357 359.105 345.78 359.739 346.229 360.36C346.455 360.67 346.73 360.935 346.978 361.231C347.264 361.477 347.543 361.737 347.834 361.973C348.446 362.39 349.098 362.762 349.825 362.877L350.36 363.003C350.44 363.019 350.778 363.038 350.948 363.045C351.211 363.022 351.555 363.012 351.814 362.892C352.337 362.693 352.77 362.295 353.062 361.669C353.354 361.061 353.535 360.335 353.641 359.63C353.738 358.92 353.791 358.221 353.813 357.569C353.844 356.263 353.801 355.146 353.762 354.362C353.717 353.573 353.692 353.121 353.692 353.121C353.692 353.121 353.9 353.527 354.182 354.275C354.459 355.022 354.819 356.11 355.047 357.481C355.164 358.166 355.257 358.923 355.245 359.747C355.234 360.568 355.177 361.472 354.808 362.411C354.48 363.324 353.732 364.389 352.59 364.823C352.039 365.067 351.481 365.133 350.86 365.162C350.586 365.154 350.476 365.159 350.114 365.126L349.337 364.975C348.299 364.764 347.361 364.216 346.554 363.612C346.164 363.295 345.825 362.93 345.495 362.576C345.215 362.19 344.908 361.825 344.672 361.437C343.708 359.885 343.214 358.304 342.922 356.953C342.77 356.277 342.686 355.65 342.623 355.096C342.563 354.541 342.539 354.056 342.53 353.657C342.514 352.857 342.56 352.402 342.56 352.402Z" fill="#964B00"/>
<path d="M154.704 150.102C150.57 146.929 145.733 144.587 140.601 142.875C135.85 143.768 131.094 144.636 126.335 145.49C117.28 147.115 108.249 148.641 99.128 149.84C95.153 150.362 91.193 150.917 87.267 151.632C83.499 166.493 79.079 191.542 88.122 203.367C101.438 220.781 124.486 228.463 127.559 264.827C130.632 301.191 132.168 334.994 127.559 346.773C122.95 358.553 110.657 367.772 119.364 372.893C128.071 378.015 153.679 374.43 151.63 352.919C149.581 331.408 152.142 269.436 158.288 242.804C158.288 242.804 148.557 225.902 157.776 208.489C166.996 191.075 176.727 167.003 154.704 150.102Z" fill="#CD7100"/>
<path d="M151.379 310.963C146.052 318.887 138.524 325.548 130.208 330.099C129.822 337.378 128.985 343.131 127.56 346.773C122.951 358.553 110.659 367.772 119.365 372.893C128.072 378.015 153.68 374.43 151.631 352.919C150.786 344.046 150.727 328.285 151.379 310.963Z" fill="white"/>
<path d="M121.557 357.761C121.557 357.761 120.949 358.792 120.038 360.338C119.589 361.108 119.076 362.008 118.563 362.98C118.061 363.957 117.554 365.01 117.202 366.089C117.025 366.627 116.911 367.174 116.862 367.697C116.838 367.969 116.851 368.187 116.886 368.491C116.906 368.787 116.945 369.058 116.996 369.3C117.069 369.804 117.239 370.301 117.427 370.739C117.615 371.183 117.852 371.578 118.119 371.908C118.639 372.583 119.24 373.026 119.694 373.264C120.144 373.518 120.436 373.606 120.436 373.606C120.436 373.606 120.132 373.594 119.621 373.434C119.367 373.351 119.066 373.223 118.736 373.04C118.411 372.851 118.047 372.613 117.709 372.282C117.368 371.954 117.046 371.546 116.771 371.074C116.51 370.592 116.277 370.073 116.132 369.477C116.04 369.176 115.989 368.886 115.955 368.607C115.909 368.341 115.862 367.977 115.87 367.661C115.871 367.008 116.015 366.378 116.191 365.777C116.555 364.573 117.121 363.476 117.711 362.501C118.302 361.525 118.93 360.67 119.502 359.968C120.648 358.562 121.557 357.761 121.557 357.761Z" fill="#964B00"/>
<path d="M124.361 363.65C124.361 363.65 124.198 363.867 123.914 364.248C123.621 364.618 123.241 365.178 122.78 365.83C122.329 366.491 121.815 367.264 121.349 368.121C120.894 368.975 120.457 369.928 120.361 370.87C120.306 371.336 120.343 371.791 120.512 372.182C120.6 372.376 120.701 372.563 120.833 372.735L121.034 372.967L121.318 373.222C121.701 373.573 122.017 373.809 122.401 374.045C122.773 374.26 123.141 374.441 123.505 374.541C124.227 374.764 124.892 374.752 125.342 374.655C125.796 374.569 126.045 374.446 126.045 374.446C126.045 374.446 125.849 374.644 125.403 374.847C125.18 374.945 124.895 375.038 124.554 375.103C124.214 375.151 123.811 375.201 123.383 375.126C122.953 375.073 122.493 374.947 122.042 374.74C121.611 374.54 121.097 374.248 120.719 373.935L120.418 373.699L120.082 373.372C119.881 373.143 119.699 372.886 119.563 372.597C119.295 372.015 119.234 371.36 119.292 370.759C119.438 369.547 119.96 368.508 120.526 367.633C121.091 366.751 121.723 366.02 122.296 365.431C123.451 364.26 124.361 363.65 124.361 363.65Z" fill="#964B00"/>
<path d="M127.586 365.894C127.586 365.894 127.343 366.38 126.975 367.244C126.625 368.108 126.136 369.384 125.956 370.926C125.886 371.687 125.9 372.539 126.267 373.251C126.449 373.602 126.703 373.915 127.04 374.157L127.28 374.314L127.611 374.482C127.831 374.568 127.986 374.637 128.224 374.692C130.025 375.162 132.185 374.824 134.212 374.336C136.256 373.815 138.246 373.046 140.039 372.181C141.834 371.316 143.434 370.348 144.724 369.405C146.021 368.47 147.016 367.568 147.65 366.875C148.292 366.189 148.617 365.755 148.617 365.755C148.617 365.755 148.547 365.87 148.415 366.087C148.287 366.307 148.083 366.619 147.801 367.003C147.23 367.762 146.336 368.802 145.087 369.866C142.608 372.003 138.751 374.258 134.474 375.367C133.408 375.65 132.314 375.847 131.216 375.926C130.121 376.001 129.007 375.984 127.944 375.661C127.69 375.597 127.383 375.459 127.149 375.352L126.824 375.174C126.659 375.073 126.582 375.005 126.458 374.918C126.02 374.571 125.664 374.117 125.46 373.626C125.048 372.633 125.114 371.649 125.265 370.827C125.602 369.164 126.295 367.965 126.758 367.139C127.241 366.315 127.586 365.894 127.586 365.894Z" fill="#964B00"/>
<path d="M82.919 178.075C82.82 179.666 82.756 181.259 82.814 182.85C82.843 184.441 82.988 186.028 83.19 187.605C83.39 189.182 83.698 190.742 84.055 192.288C84.445 193.826 84.874 195.356 85.435 196.838C85.697 197.586 85.995 198.32 86.32 199.042C86.616 199.777 86.99 200.476 87.338 201.185C87.687 201.895 88.11 202.565 88.492 203.256C88.924 203.917 89.338 204.591 89.798 205.232C90.279 205.858 90.715 206.518 91.244 207.104L92.009 208.005C92.238 208.263 92.568 208.551 92.843 208.823C93.987 209.936 95.159 211.005 96.331 212.076C98.693 214.207 101.108 216.283 103.506 218.389C104.707 219.439 105.901 220.501 107.082 221.578C108.262 222.657 109.418 223.765 110.563 224.886C111.691 226.025 112.812 227.174 113.88 228.376C114.432 228.96 114.934 229.591 115.454 230.204C115.982 230.812 116.475 231.449 116.957 232.095C117.449 232.733 117.937 233.375 118.378 234.053C118.823 234.726 119.309 235.373 119.705 236.079C120.111 236.778 120.555 237.456 120.929 238.173L122.04 240.333L122.052 240.356L122.069 240.406C123.798 245.406 126.149 250.329 127.241 255.719C127.36 256.409 127.503 257.032 127.603 257.778L127.803 259.779L128.203 263.78L129.003 271.783C129.266 274.451 129.562 277.114 129.73 279.797L130.3 287.835L130.87 295.873L131.166 303.926L131.456 311.98C131.602 314.664 131.545 317.352 131.522 320.039L131.454 328.102L131.42 332.134L131.411 333.142L131.407 333.646L131.406 333.772L131.405 333.835V333.866L131.399 333.973L131.372 334.223L131.148 336.225C130.748 339.023 130.018 341.648 129.082 344.232C128.145 346.805 127.003 349.284 125.766 351.696C123.29 356.521 120.437 361.082 117.889 365.746L117.933 365.655L117.574 366.669C117.525 367.006 117.415 367.347 117.4 367.678C117.354 368.342 117.433 368.982 117.682 369.568C117.957 370.141 118.315 370.702 118.86 371.155C119.365 371.633 119.992 372.026 120.649 372.374C121.318 372.709 122.017 373.015 122.756 373.246C123.485 373.497 124.244 373.684 125.007 373.855L126.054 374.054L127.277 374.126C128.084 374.159 128.932 374.269 129.677 374.183C130.445 374.124 131.209 374.137 131.981 374.029L134.3 373.646L136.566 373.016C137.326 372.818 138.032 372.454 138.769 372.184C139.513 371.924 140.197 371.527 140.897 371.163L141.944 370.614C142.285 370.415 142.609 370.185 142.942 369.973C143.591 369.521 144.296 369.151 144.902 368.632L146.776 367.161L146.72 367.213C146.786 367.093 146.874 367.056 146.95 366.884C147.029 366.751 147.112 366.591 147.191 366.395C147.354 366.033 147.523 365.595 147.73 365.166C147.821 364.951 147.952 364.735 148.068 364.519C148.179 364.3 148.321 364.095 148.466 363.89C148.609 363.685 148.745 363.475 148.918 363.295L149.415 362.737L149.23 362.994C149.789 361.873 150.341 360.781 150.662 359.696C150.822 359.155 150.91 358.62 150.927 358.102L150.866 356.259L150.599 348.707C150.516 346.189 150.397 343.676 150.382 341.149L150.268 333.578C150.223 331.054 150.184 328.531 150.228 326.008L150.305 318.44L150.353 314.656L150.498 310.874L150.789 303.311C150.856 300.789 151.038 298.272 151.213 295.755L151.725 288.204C151.858 285.684 152.172 283.178 152.408 280.667L153.164 273.137C153.399 270.625 153.816 268.134 154.133 265.632L155.158 258.135C155.547 255.643 156.033 253.166 156.466 250.682L157.803 243.236L157.837 243.482L156.892 241.405L156.06 239.282L155.343 237.119L154.742 234.922L154.26 232.697L153.899 230.45L153.662 228.187L153.553 225.915L153.577 223.642L153.737 221.375L154.043 219.124L154.494 216.899L155.092 214.711L155.84 212.571L156.738 210.492L157.784 208.486L156.79 210.516L155.948 212.612L155.259 214.761L154.72 216.95L154.329 219.169L154.08 221.407L153.965 223.654L153.985 225.903L154.135 228.146L154.411 230.376L154.81 232.587L155.328 234.772L155.962 236.926L156.709 239.042L157.567 241.114L158.534 243.136L158.589 243.251L158.568 243.382L157.377 250.836C156.993 253.322 156.554 255.8 156.214 258.291L155.284 265.78C154.997 268.279 154.61 270.765 154.405 273.273L153.739 280.789C153.533 283.295 153.249 285.795 153.146 288.309L152.723 295.842C152.578 298.353 152.425 300.863 152.388 303.378L152.186 310.92L152.085 314.691L152.082 318.464L152.063 326.009C152.029 328.524 152.078 331.038 152.132 333.551L152.274 341.091C152.299 343.603 152.427 346.122 152.52 348.638L152.816 356.189L152.886 358.122C152.869 358.864 152.744 359.579 152.55 360.246C152.157 361.581 151.558 362.748 151.002 363.88L150.951 363.984L150.817 364.137L150.442 364.564C150.307 364.699 150.209 364.861 150.101 365.016C149.992 365.17 149.883 365.324 149.798 365.499C149.708 365.671 149.607 365.828 149.528 366.019C149.354 366.381 149.209 366.763 149.015 367.202C148.93 367.413 148.816 367.645 148.674 367.892C148.569 368.124 148.325 368.391 148.135 368.626L148.118 368.647L148.078 368.678L146.105 370.241C145.468 370.788 144.718 371.192 144.03 371.673C143.676 371.901 143.332 372.144 142.969 372.358L141.85 372.952C141.102 373.345 140.37 373.768 139.57 374.056C138.778 374.354 138.018 374.742 137.197 374.962C136.38 375.192 135.567 375.439 134.746 375.652L132.233 376.077C131.39 376.198 130.512 376.196 129.652 376.256C128.766 376.341 127.983 376.236 127.16 376.205L125.937 376.138L125.861 376.134L125.729 376.119L125.709 376.115L125.67 376.108L125.514 376.079L125.201 376.021L124.576 375.901C123.745 375.718 122.916 375.517 122.098 375.24C121.277 374.985 120.471 374.642 119.681 374.248C118.897 373.837 118.123 373.36 117.434 372.722C116.722 372.123 116.139 371.301 115.726 370.405C115.327 369.485 115.2 368.467 115.269 367.504C115.296 367.021 115.425 366.569 115.507 366.102L115.959 364.805L115.969 364.776L116.004 364.713C118.601 359.969 121.469 355.444 123.905 350.732C125.123 348.379 126.236 345.982 127.144 343.52C128.047 341.072 128.759 338.502 129.129 335.99L129.359 333.997L129.387 333.747C129.378 333.887 129.385 333.768 129.383 333.791V333.76L129.384 333.697L129.386 333.572L129.392 333.071L129.404 332.068L129.453 328.058L129.552 320.037C129.585 317.363 129.653 314.689 129.517 312.015L129.259 303.993L128.996 295.971L128.459 287.962L127.922 279.953C127.778 277.282 127.519 274.612 127.285 271.941L126.578 263.929L126.224 259.923L126.047 257.92C125.975 257.338 125.834 256.647 125.731 256.016C125.232 253.441 124.438 250.915 123.538 248.409C122.641 245.901 121.634 243.409 120.786 240.832L120.815 240.904L119.763 238.8C119.409 238.1 118.984 237.437 118.599 236.754C118.223 236.064 117.756 235.428 117.33 234.768C116.909 234.103 116.44 233.471 115.966 232.842C115.502 232.205 115.027 231.577 114.517 230.974C114.014 230.366 113.53 229.743 112.993 229.162C111.958 227.968 110.865 226.822 109.764 225.684C105.298 221.184 100.452 217.033 95.788 212.669C94.628 211.567 93.465 210.465 92.346 209.334C92.06 209.04 91.788 208.801 91.492 208.462L90.728 207.526C90.199 206.917 89.766 206.235 89.289 205.588C88.832 204.926 88.424 204.232 87.998 203.551C87.623 202.841 87.206 202.152 86.866 201.424C86.526 200.697 86.161 199.981 85.875 199.231C85.56 198.493 85.272 197.745 85.022 196.983C84.483 195.473 84.079 193.92 83.716 192.363C83.382 190.798 83.122 189.218 82.958 187.628C82.795 186.039 82.691 184.443 82.702 182.847C82.675 181.255 82.78 179.662 82.919 178.075Z" fill="#964B00"/>
<path d="M133.829 83.062C133.829 83.062 126.923 80.657 108.34 88.736C89.757 96.815 37.446 111.076 40.44 119.701C43.434 128.326 111.034 111.628 111.034 111.628L133.829 83.062Z" fill="#287F7F"/>
<path d="M128.539 32.269C128.539 32.269 111.661 30.473 106.634 44.837C101.607 59.201 94.066 18.982 94.066 18.982L91.193 12.159C91.193 12.159 103.043 -7.59097 118.125 7.85003C133.207 23.291 128.539 32.269 128.539 32.269Z" fill="#AD5A00"/>
<path d="M89.756 11.8C89.756 11.8 95.861 -0.767992 109.865 1.38601C123.87 3.54101 135.002 27.959 135.002 27.959C135.002 27.959 134.643 44.118 131.052 42.682C127.461 41.246 120.279 6.05401 111.302 3.90001C102.325 1.74501 95.143 5.69501 92.988 13.955C90.834 22.214 89.756 11.8 89.756 11.8Z" fill="#CD7100"/>
<path d="M5.01001 29.755C5.01001 29.755 21.888 27.959 26.915 42.323C31.942 56.687 39.483 16.468 39.483 16.468L42.356 9.64496C42.356 9.64496 31.942 -7.95104 16.86 7.48996C1.77801 22.932 5.01001 29.755 5.01001 29.755Z" fill="#AD5A00"/>
<path d="M45.947 10.723C45.947 10.723 39.842 -1.84502 25.838 0.308982C11.832 2.46398 0.700012 26.882 0.700012 26.882C0.700012 26.882 1.05901 43.041 4.65001 41.605C8.24101 40.169 15.423 4.97698 24.4 2.82298C33.377 0.668982 40.559 4.61898 42.714 12.878C44.869 21.136 45.947 10.723 45.947 10.723Z" fill="#CD7100"/>
<path d="M37.5081 88.467C37.5081 88.467 38.8551 114.861 47.7421 127.519C56.6301 140.177 128 92.776 128 92.776C128 92.776 115.342 60.188 103.761 48.877C92.1801 37.565 37.5081 88.467 37.5081 88.467Z" fill="#CD7100"/>
<path d="M62.106 10.364C62.106 10.364 39.395 -0.306019 29.069 26.164C17.475 55.884 22.246 70.333 33.019 81.824C43.792 93.315 76.384 113.549 99.093 74.283C116.33 44.478 107.276 21.536 90.116 11.441C77.906 4.25898 62.106 10.364 62.106 10.364Z" fill="#CD7100"/>
<path d="M57.982 9.25498C57.982 9.25498 63.042 26.15 54.442 38.641C45.842 51.132 29.051 58.298 31.304 82.665C33.557 107.032 38.676 106.213 54.238 102.118C69.8 98.023 74.919 113.79 86.796 97.818C98.672 81.846 89.458 59.117 72.872 44.374C56.286 29.631 67.314 8.92499 67.314 8.92499C67.314 8.92499 64.22 9.38598 62.108 10.363C59.774 9.54798 57.982 9.25498 57.982 9.25498Z" fill="#DD8422"/>
<path d="M34.276 63.33C34.276 63.33 33.299 65.264 32.333 68.879C31.856 70.683 31.404 72.914 31.228 75.494C31.055 78.07 31.167 81.001 31.842 84.076C32.175 85.611 32.606 87.293 32.909 89.006C33.236 90.721 33.505 92.498 33.859 94.284C34.222 96.058 34.633 97.884 35.427 99.487C36.21 101.093 37.443 102.371 39.148 102.917C40.839 103.489 42.815 103.475 44.78 103.236C45.775 103.115 46.743 102.929 47.775 102.709C48.801 102.501 49.832 102.292 50.867 102.082C52.913 101.628 55.085 101.328 57.24 101.004C58.343 100.929 59.444 100.83 60.555 100.779L62.251 100.861L63.099 100.905C63.381 100.93 63.657 101.001 63.936 101.048L65.605 101.374C66.144 101.516 66.665 101.69 67.195 101.847C68.269 102.155 69.26 102.527 70.279 102.876C71.287 103.218 72.292 103.559 73.295 103.899L74.045 104.151L74.42 104.277L74.607 104.34C74.635 104.349 74.526 104.318 74.595 104.337L74.643 104.349L74.739 104.374L75.509 104.571C75.745 104.615 75.943 104.624 76.161 104.658C77.045 104.742 77.996 104.677 78.885 104.428C79.78 104.174 80.64 103.776 81.455 103.284C83.06 102.247 84.463 100.867 85.627 99.327C87.965 96.244 89.556 92.72 90.579 89.27C91.592 85.81 92.061 82.383 91.967 79.239C91.941 78.454 91.895 77.684 91.792 76.94L91.724 76.383L91.624 75.848C91.555 75.478 91.486 75.113 91.419 74.752C91.127 73.32 90.967 71.911 90.575 70.691C89.946 68.192 89.181 66.046 88.372 64.371C87.961 63.535 87.603 62.781 87.194 62.183C87.002 61.875 86.824 61.59 86.661 61.329C86.471 61.087 86.299 60.868 86.145 60.671C85.528 59.879 85.089 59.556 85.089 59.556C85.089 59.556 85.552 59.844 86.233 60.593C86.404 60.78 86.595 60.989 86.805 61.219C86.989 61.469 87.19 61.743 87.408 62.038C87.875 62.612 88.283 63.351 88.746 64.179C89.664 65.836 90.562 67.959 91.353 70.493C91.83 71.748 92.06 73.111 92.434 74.534C92.806 75.932 93.1 77.552 93.204 79.177C93.441 82.464 93.097 86.056 92.13 89.701C91.163 93.338 89.632 97.091 87.144 100.468C85.911 102.156 84.395 103.728 82.538 104.973C81.592 105.571 80.56 106.077 79.443 106.412C78.313 106.73 77.135 106.835 75.92 106.722C75.615 106.681 75.284 106.646 75.002 106.59L74.231 106.397L73.979 106.33L73.789 106.267L73.408 106.142L72.645 105.891C71.631 105.554 70.615 105.215 69.596 104.876C68.59 104.538 67.572 104.164 66.581 103.889C66.083 103.745 65.584 103.581 65.086 103.453L63.594 103.171C63.345 103.128 63.099 103.059 62.848 103.036L62.089 102.996L60.572 102.91C59.544 102.954 58.508 103.042 57.479 103.103C55.407 103.407 53.353 103.67 51.269 104.118C49.19 104.498 47.173 104.993 45.007 105.22C42.876 105.433 40.651 105.45 38.517 104.696C37.46 104.321 36.457 103.711 35.661 102.918C34.857 102.13 34.27 101.191 33.833 100.244C32.964 98.335 32.609 96.405 32.283 94.567C31.978 92.723 31.748 90.945 31.494 89.239C31.261 87.521 30.92 85.938 30.635 84.314C30.042 81.071 30.107 78.035 30.435 75.412C30.764 72.783 31.35 70.55 31.934 68.755C32.515 66.957 33.132 65.605 33.564 64.695C34.001 63.792 34.276 63.33 34.276 63.33Z" fill="#964B00"/>
<path d="M92.766 82.964C92.766 82.964 93.472 81.894 94.743 80.048C95.055 79.584 95.432 79.086 95.784 78.515C96.119 77.937 96.48 77.311 96.867 76.643C97.252 75.977 97.662 75.269 98.095 74.522C98.203 74.336 98.313 74.148 98.424 73.957C98.521 73.765 98.619 73.571 98.718 73.374C98.923 72.963 99.134 72.543 99.348 72.113C100.175 70.389 101.224 68.553 101.987 66.544C102.403 65.548 102.83 64.525 103.267 63.48C103.68 62.425 104.007 61.305 104.395 60.191C105.243 57.978 105.667 55.574 106.3 53.185C106.672 50.749 107.145 48.279 107.176 45.776L107.287 43.905L107.211 42.04C107.161 40.798 107.153 39.556 106.92 38.348C106.637 35.907 106.075 33.552 105.39 31.317C104.98 30.223 104.601 29.134 104.188 28.085C103.695 27.069 103.212 26.076 102.742 25.109C101.639 23.266 100.594 21.502 99.379 20.051C99.09 19.676 98.808 19.309 98.531 18.95C98.251 18.594 97.922 18.296 97.637 17.972C97.048 17.337 96.489 16.735 95.964 16.169C94.815 15.142 93.807 14.235 92.948 13.525C91.145 12.218 90.116 11.441 90.116 11.441C90.116 11.441 91.228 12.066 93.172 13.212C94.099 13.847 95.195 14.67 96.459 15.615C97.045 16.143 97.669 16.706 98.326 17.299C98.65 17.601 99.005 17.892 99.318 18.237C99.626 18.586 99.942 18.944 100.264 19.309C101.618 20.722 102.823 22.472 104.057 24.348C104.598 25.334 105.154 26.347 105.723 27.382C106.219 28.453 106.637 29.589 107.11 30.724C107.895 33.048 108.613 35.504 108.934 38.071C109.197 39.342 109.23 40.644 109.304 41.948L109.412 43.909L109.328 45.87C109.29 48.498 108.801 51.071 108.407 53.612C107.768 56.097 107.235 58.576 106.337 60.845C105.913 61.988 105.57 63.137 105.096 64.213C104.606 65.283 104.126 66.329 103.659 67.348C102.789 69.432 101.671 71.165 100.75 72.856C100.514 73.274 100.283 73.683 100.057 74.083C99.938 74.291 99.821 74.496 99.705 74.699C99.577 74.888 99.451 75.075 99.327 75.259C98.828 75.993 98.354 76.689 97.909 77.344C97.465 77.996 97.05 78.606 96.665 79.17C96.268 79.721 95.859 80.185 95.514 80.627C94.101 82.367 93.274 83.346 93.274 83.346L92.766 82.964Z" fill="#964B00"/>
<path d="M29.069 26.164C29.069 26.164 28.806 27.004 28.31 28.46C28.06 29.187 27.755 30.069 27.406 31.082C27.06 32.096 26.756 33.26 26.353 34.504C26.16 35.128 25.959 35.778 25.752 36.45C25.573 37.131 25.388 37.835 25.197 38.559C25.007 39.282 24.811 40.024 24.611 40.782C24.427 41.543 24.279 42.33 24.106 43.123C23.947 43.919 23.747 44.721 23.614 45.544C23.492 46.367 23.369 47.2 23.245 48.04C23.091 48.876 23.024 49.726 22.965 50.578C22.915 51.43 22.791 52.284 22.8 53.139C22.792 53.993 22.785 54.846 22.777 55.697C22.798 56.545 22.895 57.384 22.948 58.22C22.98 59.059 23.162 59.869 23.272 60.68C23.335 61.084 23.398 61.486 23.46 61.886C23.557 62.278 23.653 62.667 23.749 63.052C24.091 64.606 24.604 66.06 25.097 67.435C25.378 68.112 25.651 68.77 25.915 69.407C26.216 70.031 26.508 70.633 26.787 71.211C27.053 71.797 27.372 72.329 27.654 72.846C27.939 73.362 28.195 73.86 28.462 74.315C29.013 75.216 29.478 76.012 29.889 76.654C30.717 77.934 31.174 78.681 31.174 78.681L30.228 79.371C30.228 79.371 29.668 78.688 28.718 77.466C28.25 76.849 27.71 76.075 27.074 75.199C26.481 74.291 25.768 73.289 25.126 72.106C24.802 71.516 24.465 70.9 24.116 70.264C23.814 69.601 23.501 68.915 23.18 68.21C22.61 66.77 22.006 65.235 21.634 63.575C21.528 63.164 21.421 62.749 21.314 62.331C21.242 61.906 21.17 61.478 21.098 61.047C20.964 60.184 20.774 59.315 20.752 58.424C20.703 57.536 20.612 56.641 20.599 55.744C20.617 54.847 20.635 53.947 20.653 53.047C20.673 52.147 20.827 51.261 20.908 50.372C20.998 49.483 21.097 48.6 21.282 47.741C21.448 46.879 21.612 46.023 21.774 45.178C21.956 44.338 22.203 43.527 22.409 42.72C22.633 41.918 22.814 41.118 23.065 40.359C23.324 39.603 23.578 38.863 23.824 38.143C24.073 37.425 24.315 36.727 24.549 36.051C24.823 35.389 25.087 34.75 25.341 34.137C25.852 32.914 26.303 31.785 26.771 30.822C27.239 29.859 27.648 29.019 27.984 28.328C28.662 26.945 29.069 26.164 29.069 26.164Z" fill="#964B00"/>
<path d="M38.854 103.28C38.854 103.28 41.817 115.4 46.126 124.287" stroke="#964B00" stroke-width="2.1546" stroke-miterlimit="10"/>
<path d="M110.494 64.767C110.494 64.767 110.65 65.897 110.708 67.895C110.724 68.893 110.748 70.109 110.67 71.501C110.611 72.894 110.492 74.466 110.261 76.171C110.05 77.879 109.715 79.718 109.268 81.646C108.786 83.563 108.253 85.592 107.461 87.613C106.71 89.646 105.799 91.707 104.684 93.704C104.121 94.7 103.544 95.699 102.883 96.653C102.271 97.639 101.54 98.549 100.841 99.482C100.109 100.388 99.319 101.25 98.531 102.101C97.681 102.893 96.912 103.766 96.005 104.474C95.565 104.843 95.127 105.21 94.692 105.576C94.258 105.944 93.772 106.239 93.318 106.571C92.858 106.893 92.4 107.213 91.946 107.53C91.469 107.812 90.995 108.091 90.526 108.369C90.054 108.641 89.597 108.931 89.124 109.181C88.642 109.413 88.166 109.644 87.694 109.871C87.221 110.094 86.753 110.314 86.291 110.532C85.814 110.715 85.343 110.896 84.879 111.074C83.044 111.846 81.213 112.289 79.553 112.748C77.859 113.085 76.327 113.468 74.932 113.587C73.546 113.752 72.346 113.931 71.343 113.941C69.351 114.012 68.212 114.052 68.212 114.052C68.212 114.052 69.332 113.857 71.291 113.515C72.274 113.39 73.438 113.06 74.781 112.776C76.133 112.522 77.597 111.996 79.218 111.556C80.019 111.3 80.831 110.968 81.68 110.661C82.538 110.375 83.386 109.985 84.258 109.589C84.695 109.394 85.137 109.195 85.585 108.995C86.016 108.762 86.452 108.525 86.893 108.286C87.334 108.049 87.78 107.809 88.23 107.567C88.673 107.314 89.099 107.021 89.539 106.747C89.977 106.469 90.419 106.188 90.863 105.906C91.284 105.59 91.708 105.271 92.134 104.95C93.005 104.333 93.811 103.616 94.635 102.907C95.488 102.23 96.203 101.391 97 100.636C97.737 99.822 98.473 98.996 99.161 98.134C99.832 97.256 100.536 96.404 101.128 95.471C101.767 94.572 102.326 93.626 102.874 92.682C103.426 91.742 103.903 90.766 104.403 89.819C104.847 88.843 105.328 87.896 105.7 86.919C106.51 84.993 107.151 83.07 107.72 81.232C108.243 79.381 108.71 77.616 109.048 75.962C109.748 72.66 110.086 69.85 110.284 67.878C110.469 65.906 110.494 64.767 110.494 64.767Z" fill="#964B00"/>
<path d="M0.700022 26.882C0.700022 26.882 0.802022 28.15 1.05502 30.352C1.18102 31.452 1.35202 32.787 1.62202 34.297C1.90802 35.795 2.24602 37.517 2.90802 39.192C3.08102 39.601 3.28102 40.007 3.52402 40.338C3.76302 40.675 4.05902 40.896 4.25202 40.902C4.30302 40.905 4.35302 40.904 4.41102 40.893C4.42002 40.888 4.51702 40.872 4.45402 40.882L4.63702 40.814C4.68802 40.759 4.82802 40.688 4.96902 40.52C5.24402 40.227 5.50202 39.809 5.73102 39.364C6.63902 37.541 7.27102 35.323 7.94902 33.073C8.61402 30.807 9.23102 28.427 9.95102 26.027C10.661 23.624 11.409 21.181 12.275 18.764C13.158 16.355 14.142 13.967 15.324 11.694C16.509 9.42798 17.925 7.27598 19.712 5.49298C21.465 3.70098 23.791 2.39798 26.169 2.13698C26.746 2.05698 27.372 2.05898 27.879 2.06698C28.401 2.06198 28.945 2.09999 29.476 2.13199C30.53 2.21399 31.539 2.33098 32.501 2.53398C34.427 2.89798 36.133 3.59498 37.484 4.44898C38.838 5.31198 39.803 6.35998 40.412 7.31698C41.034 8.27498 41.284 9.14498 41.419 9.72498C41.549 10.312 41.547 10.632 41.547 10.632C41.547 10.632 41.509 10.313 41.311 9.75598C41.118 9.19898 40.743 8.40898 40.08 7.55098C39.418 6.69598 38.425 5.80298 37.096 5.11798C35.766 4.43598 34.129 3.95998 32.3 3.71898C31.388 3.58798 30.418 3.54098 29.425 3.52998C28.461 3.54098 27.329 3.53598 26.393 3.69398C24.422 4.00698 22.581 5.18598 21.051 6.80798C19.504 8.42998 18.267 10.482 17.167 12.644C16.066 14.813 15.135 17.133 14.297 19.494C13.444 21.85 12.671 24.248 11.946 26.626C11.23 29.008 10.502 31.355 9.77103 33.634C9.02303 35.912 8.29402 38.115 7.15202 40.149C6.85402 40.655 6.52902 41.155 6.05702 41.614C5.83802 41.837 5.53502 42.064 5.12002 42.238L4.93402 42.297C4.75002 42.357 4.71502 42.343 4.59802 42.366C4.39902 42.389 4.19002 42.381 3.98802 42.34C3.15102 42.146 2.70102 41.561 2.39802 41.093C2.09102 40.6 1.90002 40.11 1.73502 39.631C1.11502 37.717 0.951021 35.958 0.814021 34.402C0.689021 32.847 0.649022 31.493 0.631022 30.379C0.607022 29.265 0.64502 28.39 0.66202 27.795C0.68702 27.2 0.700022 26.882 0.700022 26.882Z" fill="#964B00"/>
<path d="M134.562 27.421C134.562 27.421 134.604 27.744 134.684 28.349C134.753 28.956 134.863 29.847 134.924 30.988C134.988 32.129 135.039 33.518 134.979 35.121C134.891 36.72 134.803 38.555 133.987 40.511C133.771 40.995 133.493 41.49 133.068 41.935C132.654 42.381 132.025 42.747 131.341 42.833C130.984 42.875 130.699 42.88 130.303 42.787C130.215 42.782 129.924 42.661 129.742 42.563C129.594 42.463 129.425 42.362 129.307 42.246C128.79 41.79 128.45 41.278 128.139 40.762C126.956 38.683 126.229 36.419 125.466 34.083C123.963 29.416 122.623 24.406 120.869 19.572C120.009 17.154 119.051 14.777 117.908 12.567C116.773 10.364 115.458 8.291 113.816 6.74C112.195 5.174 110.21 4.247 108.2 4.269C106.062 4.294 104.086 4.648 102.335 5.311C100.593 5.961 99.099 6.838 97.9 7.787C96.692 8.726 95.773 9.719 95.072 10.575C94.379 11.44 93.887 12.166 93.584 12.677C93.278 13.187 93.15 13.464 93.15 13.464L92.531 13.209C92.531 13.209 92.649 12.883 92.921 12.319C93.197 11.759 93.621 10.944 94.294 9.988C94.972 9.04 95.873 7.927 97.102 6.836C98.325 5.749 99.866 4.649 101.756 3.865C103.62 3.064 105.843 2.536 108.172 2.449C110.662 2.327 113.303 3.447 115.197 5.246C117.133 7.026 118.593 9.252 119.818 11.576C121.028 13.915 122.016 16.373 122.898 18.851C124.628 23.821 125.913 28.886 127.214 33.554C127.893 35.864 128.526 38.15 129.467 40.013C129.704 40.466 129.977 40.889 130.264 41.166C130.335 41.247 130.405 41.28 130.472 41.341C130.534 41.355 130.472 41.386 130.65 41.426C130.768 41.473 131.025 41.493 131.188 41.479C131.914 41.457 132.536 40.799 132.939 40.005C133.736 38.389 134.013 36.589 134.231 35.055C134.427 33.499 134.498 32.123 134.534 30.989C134.606 28.725 134.562 27.421 134.562 27.421Z" fill="#964B00"/>
<path d="M34.615 31.461C34.615 31.461 34.743 31.122 35.088 30.59C35.432 30.061 35.99 29.326 36.853 28.618C37.282 28.261 37.784 27.909 38.365 27.608C38.652 27.453 38.969 27.331 39.285 27.187C39.608 27.058 39.956 26.976 40.305 26.869C40.66 26.791 41.029 26.741 41.402 26.683C41.777 26.66 42.159 26.651 42.545 26.647C42.927 26.678 43.312 26.717 43.698 26.766C44.078 26.834 44.449 26.942 44.826 27.031L44.966 27.068L45.036 27.087L45.071 27.096L45.163 27.129L45.406 27.225L45.891 27.417C46.197 27.516 46.573 27.741 46.924 27.936C47.292 28.122 47.594 28.359 47.89 28.594C48.199 28.813 48.464 29.083 48.717 29.351C49.234 29.876 49.619 30.483 49.93 31.066C50.244 31.65 50.436 32.244 50.575 32.789C50.707 33.338 50.765 33.846 50.785 34.294C50.807 34.742 50.78 35.13 50.748 35.446C50.679 36.078 50.557 36.421 50.557 36.421C50.557 36.421 50.489 36.065 50.321 35.481C50.238 35.189 50.114 34.843 49.977 34.457C49.827 34.072 49.632 33.656 49.415 33.219C49.173 32.791 48.895 32.35 48.568 31.922C48.231 31.5 47.843 31.095 47.399 30.735C46.972 30.372 46.448 30.031 45.95 29.786C45.693 29.661 45.476 29.527 45.119 29.409L44.631 29.226L44.387 29.134L44.372 29.128L44.364 29.125C44.348 29.119 44.474 29.164 44.417 29.144L44.389 29.137L44.332 29.123L44.219 29.095C43.919 29.022 43.621 28.924 43.321 28.865C43.019 28.819 42.718 28.773 42.419 28.728C42.118 28.715 41.819 28.701 41.524 28.688C41.228 28.706 40.935 28.724 40.647 28.742C40.074 28.825 39.512 28.921 38.987 29.084C38.468 29.258 37.97 29.441 37.521 29.651C36.626 30.077 35.897 30.536 35.396 30.883C34.895 31.233 34.615 31.461 34.615 31.461Z" fill="#964B00"/>
<path d="M88.665 31.461C88.665 31.461 88.385 31.232 87.885 30.885C87.384 30.538 86.655 30.079 85.76 29.653C85.311 29.442 84.813 29.26 84.294 29.086C83.769 28.923 83.206 28.826 82.634 28.744C82.346 28.726 82.053 28.708 81.757 28.69C81.462 28.703 81.163 28.716 80.862 28.73C80.563 28.775 80.262 28.821 79.96 28.867C79.659 28.927 79.362 29.024 79.062 29.097L78.949 29.125L78.892 29.139L78.864 29.146C78.807 29.166 78.933 29.121 78.918 29.127L78.91 29.13L78.895 29.136L78.651 29.228L78.163 29.411C77.806 29.529 77.589 29.663 77.332 29.788C76.834 30.033 76.31 30.374 75.883 30.737C75.439 31.097 75.051 31.503 74.714 31.924C74.387 32.352 74.109 32.793 73.867 33.221C73.65 33.659 73.454 34.074 73.305 34.459C73.168 34.846 73.044 35.191 72.961 35.483C72.792 36.067 72.725 36.423 72.725 36.423C72.725 36.423 72.603 36.081 72.534 35.448C72.502 35.133 72.475 34.744 72.497 34.296C72.517 33.848 72.575 33.34 72.707 32.791C72.846 32.246 73.037 31.652 73.352 31.068C73.662 30.485 74.048 29.878 74.565 29.353C74.819 29.085 75.083 28.815 75.392 28.596C75.688 28.36 75.99 28.124 76.358 27.938C76.708 27.743 77.084 27.518 77.39 27.419L77.875 27.227L78.118 27.131L78.21 27.098L78.245 27.089L78.315 27.07L78.455 27.033C78.832 26.944 79.203 26.836 79.583 26.768C79.969 26.719 80.354 26.68 80.736 26.649C81.122 26.653 81.504 26.662 81.879 26.685C82.252 26.743 82.621 26.793 82.976 26.871C83.325 26.978 83.673 27.06 83.996 27.189C84.313 27.333 84.629 27.455 84.916 27.61C85.497 27.91 86 28.263 86.428 28.62C87.291 29.329 87.849 30.063 88.193 30.592C88.537 31.122 88.665 31.461 88.665 31.461Z" fill="#964B00"/>
<path d="M41.038 45.788C44.0087 45.788 46.417 43.3797 46.417 40.409C46.417 37.4382 44.0087 35.03 41.038 35.03C38.0673 35.03 35.659 37.4382 35.659 40.409C35.659 43.3797 38.0673 45.788 41.038 45.788Z" fill="#4C2400"/>
<path d="M37.452 38.765C37.452 39.838 38.322 40.707 39.394 40.707C40.467 40.707 41.336 39.837 41.336 38.765C41.336 37.692 40.466 36.823 39.394 36.823C38.322 36.823 37.452 37.693 37.452 38.765Z" fill="white"/>
<path d="M81.679 45.788C84.6498 45.788 87.058 43.3797 87.058 40.409C87.058 37.4382 84.6498 35.03 81.679 35.03C78.7083 35.03 76.3 37.4382 76.3 40.409C76.3 43.3797 78.7083 45.788 81.679 45.788Z" fill="#4C2400"/>
<path d="M78.093 38.765C78.093 39.838 78.963 40.707 80.035 40.707C81.108 40.707 81.977 39.837 81.977 38.765C81.977 37.692 81.107 36.823 80.035 36.823C78.962 36.823 78.093 37.693 78.093 38.765Z" fill="white"/>
<path d="M54.924 89.544L45.767 98.162C45.767 98.162 46.282 114.305 56.54 114.142C67.852 113.962 67.852 97.803 67.852 97.803L59.234 89.364L57.977 88.825L54.924 89.544Z" fill="#EA7878"/>
<path d="M56.36 88.646C56.36 88.646 55.934 87.868 55.578 86.677C55.192 85.489 54.886 83.887 54.748 82.271C54.615 80.655 54.649 79.025 54.835 77.789C54.989 76.556 55.283 75.718 55.283 75.718C55.283 75.718 55.711 76.496 56.068 77.687C56.456 78.875 56.759 80.477 56.895 82.093C57.026 83.709 56.99 85.339 56.806 86.575C56.652 87.809 56.36 88.646 56.36 88.646Z" fill="#964B00"/>
<path d="M36.43 95.828C36.43 95.828 36.45 96.069 36.525 96.512C36.6 96.954 36.737 97.602 37.009 98.376C37.28 99.124 37.755 100.097 38.632 100.518C39.059 100.704 39.63 100.658 40.1 100.523C40.759 100.28 41.248 100.013 41.821 99.627C44.118 98.071 46.545 95.752 49.089 93.257C50.368 92.009 51.64 90.667 52.964 89.328L53.959 88.311C54.252 88.045 54.678 87.418 55.639 87.202C56.481 87.037 57.146 87.287 57.682 87.513C58.227 87.756 58.668 88.054 59.099 88.355C60.762 89.598 62.088 90.983 63.46 92.288C64.821 93.591 66.114 94.893 67.456 96.024C68.802 97.152 70.138 98.158 71.519 98.876C72.886 99.569 74.276 99.85 75.559 99.621C76.834 99.364 77.942 98.716 78.848 98.045C79.732 97.338 80.474 96.647 81.03 96.027C81.602 95.419 82.028 94.915 82.311 94.565C82.6 94.218 82.754 94.033 82.754 94.033C82.754 94.033 82.633 94.241 82.407 94.632C82.18 95.023 81.861 95.609 81.363 96.297C80.888 97.002 80.244 97.819 79.384 98.671C78.508 99.493 77.376 100.377 75.84 100.825C75.071 101.011 74.227 101.124 73.366 101.026C72.509 100.93 71.659 100.676 70.841 100.335C69.24 99.633 67.701 98.635 66.257 97.494C64.811 96.348 63.391 95.1 62.022 93.791C60.646 92.507 59.271 91.14 57.84 90.101C57.173 89.577 56.309 89.183 56.06 89.275C56.049 89.238 55.816 89.393 55.447 89.788L54.439 90.791C53.1 92.133 51.726 93.405 50.39 94.631C49.055 95.858 47.707 96.989 46.393 98.024C45.077 99.059 43.77 99.973 42.448 100.687C42.138 100.874 41.758 101.031 41.411 101.185C41.052 101.364 40.748 101.404 40.425 101.507C39.622 101.659 38.893 101.597 38.257 101.249C37.055 100.464 36.796 99.303 36.599 98.494C36.419 97.648 36.416 96.976 36.409 96.524C36.41 96.068 36.43 95.828 36.43 95.828Z" fill="#964B00"/>
<path d="M40.74 69.435C40.74 69.435 40.752 69.275 40.811 68.974C40.878 68.678 40.965 68.228 41.191 67.698C41.395 67.157 41.717 66.527 42.166 65.846C42.401 65.515 42.664 65.168 42.954 64.811C43.272 64.484 43.587 64.106 43.975 63.785C44.73 63.116 45.617 62.445 46.65 61.921C47.16 61.642 47.691 61.369 48.26 61.159C48.819 60.918 49.403 60.703 50.011 60.55C51.215 60.179 52.488 59.936 53.787 59.766C54.438 59.709 55.094 59.652 55.752 59.595C55.857 59.589 55.866 59.578 56.05 59.577H56.29H56.771L57.733 59.576C58.358 59.559 59.051 59.653 59.732 59.734C60.415 59.804 61.089 59.891 61.728 60.059C63.033 60.3 64.267 60.763 65.428 61.246C66.591 61.741 67.644 62.365 68.59 63.016C69.536 63.672 70.356 64.385 71.058 65.089C72.468 66.497 73.376 67.887 73.926 68.885C74.475 69.89 74.671 70.511 74.671 70.511C74.671 70.511 74.31 69.97 73.574 69.129C72.841 68.289 71.726 67.153 70.241 66.017C69.493 65.455 68.65 64.903 67.733 64.376C66.806 63.864 65.792 63.407 64.72 63.005C63.643 62.615 62.498 62.312 61.317 62.097C60.728 61.953 60.137 61.892 59.546 61.843C58.955 61.782 58.375 61.705 57.713 61.729L56.751 61.711L56.27 61.702L56.03 61.697L55.85 61.709C55.234 61.751 54.62 61.792 54.011 61.833C52.807 61.983 51.609 62.091 50.496 62.38C49.925 62.481 49.394 62.662 48.865 62.821C48.326 62.959 47.828 63.159 47.346 63.365C46.847 63.542 46.408 63.796 45.968 64.02C45.512 64.224 45.133 64.51 44.74 64.751C43.981 65.268 43.339 65.823 42.806 66.36C42.299 66.916 41.865 67.428 41.57 67.894C40.953 68.813 40.74 69.435 40.74 69.435Z" fill="#964B00"/>
<path d="M56.719 65.305C56.719 65.305 46.844 64.946 43.971 70.153C41.098 75.36 53.667 82.183 55.642 82.542C57.617 82.901 63.646 80.084 68.21 72.667C71.083 67.999 59.772 65.126 56.719 65.305Z" fill="#964B00"/>
<path d="M45.466 75.864C45.466 75.864 49.798 80.919 52.027 79.055C55.192 76.408 53.027 70.722 49.027 70.222C45.027 69.722 49.399 76.344 51.796 76.866C54.193 77.388 50.586 81.444 45.466 75.864Z" fill="#4C2400"/>
<path d="M65.886 75.864C65.886 75.864 61.554 80.919 59.325 79.055C56.16 76.408 58.325 70.722 62.325 70.222C66.325 69.722 61.953 76.344 59.556 76.866C57.158 77.388 60.765 81.444 65.886 75.864Z" fill="#4C2400"/>
<path d="M44.296 138.435C44.296 138.435 67.161 150.005 102.148 133.752C137.135 117.498 139.89 102.898 139.89 102.898L133.829 83.063C133.829 83.063 112.617 116.948 40.439 119.703L44.296 138.435Z" fill="#74E0E8"/>
<path d="M75.918 115.284C65.759 117.568 53.999 119.184 40.439 119.702L44.296 138.435C44.296 138.435 64.47 148.639 95.912 136.41C87.714 130.712 80.622 123.606 75.918 115.284Z" fill="#5BD1D3"/>
</svg>
